<svg width="354" height="298" viewBox="0 0 354 298" fill="none" xmlns="http://www.w3.org/2000/svg">
<g opacity="0.5">
<path opacity="0.5" d="M204.033 14.1466L173.04 219.561L321.709 241.992L352.702 36.5776L204.033 14.1466Z" fill="url(#paint0_linear)"/>
</g>
<path opacity="0.03" d="M215.016 16.9752L184.138 221.627L322.162 242.452L353.04 37.8001L215.016 16.9752Z" fill="black"/>
<path d="M205.698 15.9452L175.39 216.819L320.277 238.679L350.584 37.8055L205.698 15.9452Z" fill="white"/>
<path d="M316.418 121.747L211.847 105.969L210.891 112.308L315.461 128.085L316.418 121.747Z" fill="#E0E0E0"/>
<path d="M314.028 137.589L209.457 121.812L208.501 128.15L313.071 143.927L314.028 137.589Z" fill="#E0E0E0"/>
<path d="M325.731 63.6328L271.86 55.5049L270.903 61.8433L324.774 69.9712L325.731 63.6328Z" fill="#E0E0E0"/>
<path d="M318.589 78.7621L274.224 72.0684L273.268 78.4068L317.633 85.1005L318.589 78.7621Z" fill="#41AAE2"/>
<path d="M298.962 151.522L207.064 137.656L206.108 143.995L298.005 157.86L298.962 151.522Z" fill="#E0E0E0"/>
<path d="M283.892 165.454L204.672 153.501L203.715 159.84L282.936 171.793L283.892 165.454Z" fill="#E0E0E0"/>
<path d="M271.996 179.864L202.281 169.345L201.325 175.684L271.04 186.202L271.996 179.864Z" fill="#E0E0E0"/>
<path d="M288.618 198.576L199.891 185.189L198.935 191.528L287.661 204.915L288.618 198.576Z" fill="#E0E0E0"/>
<path d="M232.36 206.291L197.504 201.032L196.548 207.371L231.403 212.63L232.36 206.291Z" fill="#6C63FF"/>
<g opacity="0.5">
<path opacity="0.5" d="M259.985 71.6347C260.535 67.9833 260.13 64.2515 258.811 60.8027C257.491 57.3539 255.301 54.3054 252.454 51.9541C249.606 49.6027 246.199 48.0285 242.563 47.3847C238.927 46.7409 235.186 47.0494 231.704 48.2802C228.223 49.511 225.119 51.6222 222.695 54.4082C220.272 57.1943 218.611 60.5603 217.874 64.1787C217.137 67.7971 217.349 71.5447 218.49 75.0567C219.632 78.5687 221.662 81.7254 224.385 84.2197C224.385 84.2501 224.385 84.2842 224.385 84.3146C224.975 85.0844 225.711 85.7294 226.552 86.2122L226.594 86.1211C227.456 87.1193 231.422 89.108 236.215 89.8177H236.321C239.357 90.2807 242.731 90.239 245.862 89.108C245.862 89.108 245.897 89.0548 245.954 88.9562C246.74 88.7215 247.483 88.3614 248.155 87.8897L248.223 87.6544C251.335 86.1367 254.031 83.8858 256.08 81.0952C258.128 78.3046 259.469 75.058 259.985 71.6347Z" fill="url(#paint1_linear)"/>
</g>
<path d="M259.255 70.7601C260.965 59.4293 253.165 48.8579 241.834 47.1483C230.503 45.4387 219.932 53.2383 218.222 64.5692C216.513 75.9 224.312 86.4713 235.643 88.1809C246.974 89.8905 257.545 82.0909 259.255 70.7601Z" fill="#F5F5F5"/>
<path opacity="0.03" d="M164.788 42.4548L20.1921 66.1592L53.9148 271.866L198.511 248.161L164.788 42.4548Z" fill="black"/>
<path d="M167.532 44.8615L22.9364 68.5659L55.8007 269.037L200.397 245.333L167.532 44.8615Z" fill="white"/>
<circle cx="240.83" cy="59.9674" r="20.3606" transform="rotate(6.96665 240.83 59.9674)" fill="#21D0C3"/>
<mask id="mask0" mask-type="alpha" maskUnits="userSpaceOnUse" x="218" y="37" width="46" height="46">
<circle cx="240.83" cy="59.9674" r="20.3606" transform="rotate(6.96665 240.83 59.9674)" fill="#21D0C3"/>
</mask>
<g mask="url(#mask0)">
<path d="M234.466 69.018C235.605 68.4674 235.734 66.4303 235.792 65.9583L244.287 66.9964C244.23 67.4684 243.852 69.4751 244.824 70.2837L238.944 75.4451L234.466 69.018Z" fill="#BD7D31"/>
<path d="M242.709 72.0737L244.824 70.2844C243.852 69.4759 244.23 67.4691 244.287 66.9971L235.792 65.959C236.187 67.786 239.851 71.2854 242.709 72.0737Z" fill="#986221"/>
<path d="M247.397 61.149C246.935 64.9288 244.183 69.3789 239.751 68.8374C235.32 68.2959 233.72 63.3139 234.182 59.5342C234.643 55.7544 237.774 54.7038 241.424 55.1497C245.073 55.5956 247.859 57.3693 247.397 61.149Z" fill="#BD7D31"/>
<path d="M234.301 60.3874C233.615 60.1239 233.106 60.4455 233.015 61.1883C232.895 62.1716 233.552 64.697 234.736 63.3147C235.92 61.9325 234.301 60.3874 234.301 60.3874Z" fill="#BD7D31"/>
<path d="M246.955 61.9335C247.749 61.8509 248.209 62.2909 248.118 63.0337C247.998 64.017 246.665 66.2992 245.757 64.6613C244.849 63.0234 246.955 61.9335 246.955 61.9335Z" fill="#BD7D31"/>
<path d="M235.828 57.8197C235.562 58.3613 234.895 61.5379 234.895 61.5379L234.015 60.9003L234.172 57.4082L235.828 57.8197Z" fill="#3C312E"/>
<path d="M246.212 59.0883C246.339 59.6781 246.222 62.9219 246.222 62.9219L247.23 62.515L247.918 59.0878L246.212 59.0883Z" fill="#3C312E"/>
<path d="M249.223 81.4917C250.005 81.5872 250.716 81.0308 250.812 80.2487L251.253 76.6406C251.506 74.5639 250.159 72.149 248.258 71.2745L245.421 69.9688C243.684 70.9894 241.211 72.3691 239.347 72.1414C237.484 71.9137 235.416 69.9792 233.976 68.5703L230.907 69.1543C228.852 69.5455 226.963 71.5648 226.709 73.6416L226.268 77.2497C226.173 78.0317 226.729 78.7431 227.511 78.8387L249.223 81.4917Z" fill="#527992"/>
<path d="M240.118 73.673C240.087 73.9326 239.848 74.119 239.589 74.0873L238.645 73.972C238.385 73.9402 238.199 73.7019 238.231 73.4423L238.346 72.4983C238.378 72.2388 238.616 72.0523 238.876 72.084L239.82 72.1994C240.079 72.2311 240.266 72.4694 240.234 72.729L240.118 73.673Z" fill="#545465"/>
<path d="M238.771 76.8615C239.031 76.8933 239.268 76.7078 239.3 76.4472C239.332 76.1865 239.147 75.9494 238.886 75.9175C238.625 75.8857 238.388 76.0712 238.356 76.3318C238.324 76.5925 238.51 76.8296 238.771 76.8615Z" fill="#D0D7DC"/>
<path d="M239.347 72.1416L237.137 73.8702C236.907 74.0503 236.571 73.9821 236.429 73.7267L233.558 68.5598L234.791 67.5948C234.99 67.439 235.277 67.4664 235.443 67.6571L239.347 72.1416Z" fill="#475F7F"/>
<path d="M239.347 72.1413L241.076 74.3513C241.256 74.5814 241.599 74.5962 241.798 74.3825L245.829 70.0591L244.864 68.8254C244.709 68.6262 244.424 68.5839 244.217 68.729L239.347 72.1413Z" fill="#475F7F"/>
<path d="M239.797 73.843L239.117 74.0292L238.501 73.6845L237.423 80.0498L238.367 80.1651L239.311 80.2805L239.797 73.843Z" fill="#545465"/>
<path d="M249.391 81.4951C250.104 81.4978 250.723 80.9737 250.812 80.2486L251.252 76.6406C251.506 74.5638 250.159 72.1489 248.258 71.2744L245.785 70.1364L240.729 80.4367L249.391 81.4951Z" fill="#E4EBF0"/>
<path d="M233.582 68.645L230.907 69.1541C228.852 69.5452 226.963 71.5645 226.709 73.6413L226.268 77.2494C226.18 77.9745 226.655 78.6322 227.347 78.8013L236.009 79.8597L233.582 68.645Z" fill="#E4EBF0"/>
<path d="M233.558 68.5598L231.253 70.7415C231.04 70.9333 231.044 71.2688 231.262 71.4556L232.152 72.2203L230.894 73.2046C230.705 73.3524 230.656 73.6176 230.779 73.8234L233.175 79.5308L236.009 79.8601L233.558 68.5598Z" fill="#D0D7DC"/>
<path d="M245.829 70.0591L247.54 72.7314C247.701 72.9689 247.616 73.2935 247.36 73.4225L246.312 73.9503L247.296 75.2086C247.444 75.3975 247.428 75.6668 247.259 75.8368L243.559 80.7994L240.729 80.4365L245.829 70.0591Z" fill="#D0D7DC"/>
<path d="M248.1 59.3188C243.38 58.742 238.66 58.1653 233.94 57.5886C234.248 55.0713 234.463 53.3098 234.771 50.7925C239.495 49.0697 244.759 49.7129 248.93 52.5227C248.623 55.04 248.407 56.8015 248.1 59.3188Z" fill="#E4EBF0"/>
</g>
<path d="M160.83 135.221L56.4688 152.33L57.5058 158.655L161.867 141.547L160.83 135.221Z" fill="#E0E0E0"/>
<path d="M163.422 151.034L59.0608 168.143L60.0978 174.468L164.459 157.36L163.422 151.034Z" fill="#E0E0E0"/>
<path d="M152.538 84.6219L98.7756 93.4355L99.8126 99.7613L153.575 90.9476L152.538 84.6219Z" fill="#E0E0E0"/>
<path d="M150.385 101.213L106.109 108.471L107.146 114.797L151.422 107.538L150.385 101.213Z" fill="#41AAE2"/>
<path d="M153.366 168.92L61.6528 183.956L62.6898 190.281L154.403 175.246L153.366 168.92Z" fill="#E0E0E0"/>
<path d="M143.306 186.803L64.2445 199.764L65.2815 206.09L144.343 193.129L143.306 186.803Z" fill="#E0E0E0"/>
<path d="M136.412 204.174L66.8368 215.58L67.8738 221.905L137.449 210.499L136.412 204.174Z" fill="#E0E0E0"/>
<path d="M157.978 216.872L69.4293 231.389L70.4663 237.714L159.015 223.198L157.978 216.872Z" fill="#E0E0E0"/>
<path d="M106.81 241.501L72.0242 247.203L73.0612 253.529L107.847 247.826L106.81 241.501Z" fill="#41AAE2"/>
<g opacity="0.5">
<path opacity="0.5" d="M93.6814 103.499C93.0667 99.7534 91.4928 96.2303 89.1127 93.2729C86.7326 90.3156 83.6274 88.0247 80.0993 86.6234C76.5713 85.2221 72.7406 84.7579 68.98 85.2762C65.2193 85.7945 61.6569 87.2775 58.6394 89.5808C55.622 91.8842 53.2522 94.9296 51.7607 98.4204C50.2692 101.911 49.7069 105.729 50.1284 109.502C50.5499 113.274 51.941 116.874 54.1661 119.949C56.3913 123.025 59.3747 125.472 62.8262 127.053L62.8565 127.148C63.6767 127.71 64.6003 128.105 65.5739 128.309V128.206C66.7315 128.912 71.2402 129.607 76.155 128.787H76.2613C79.3772 128.282 82.6638 127.174 85.3698 125.079C85.3698 125.079 85.3698 125.018 85.4078 124.905C86.1034 124.427 86.7173 123.84 87.2257 123.166C87.2257 123.08 87.2257 122.997 87.2257 122.916C89.7965 120.446 91.7276 117.388 92.8523 114.005C93.977 110.622 94.2616 107.017 93.6814 103.499Z" fill="url(#paint2_linear)"/>
</g>
<path d="M75.4372 128.097C87.0619 126.191 94.9406 115.223 93.0349 103.598C91.1292 91.9737 80.1607 84.0949 68.5361 86.0006C56.9115 87.9063 49.0328 98.8748 50.9385 110.499C52.8442 122.124 63.8126 130.003 75.4372 128.097Z" fill="#F5F5F5"/>
<g opacity="0.5">
<path opacity="0.5" d="M278.414 76.9365H128.062V284.676H278.414V76.9365Z" fill="url(#paint3_linear)"/>
</g>
<path opacity="0.03" d="M273.672 82.2378H127.146V285.385H273.672V82.2378Z" fill="black"/>
<path d="M276.501 78.4653H129.975V281.613H276.501V78.4653Z" fill="white"/>
<path d="M255.267 166.553H149.513V172.963H255.267V166.553Z" fill="#E0E0E0"/>
<path d="M255.267 182.577H149.513V188.987H255.267V182.577Z" fill="#E0E0E0"/>
<path d="M255.271 115.28H200.79V121.69H255.271V115.28Z" fill="#E0E0E0"/>
<path d="M250.462 131.303H205.595V137.713H250.462V131.303Z" fill="#41AAE2"/>
<path d="M242.45 198.6H149.513V205.01H242.45V198.6Z" fill="#E0E0E0"/>
<path d="M229.63 214.623H149.513V221.033H229.63V214.623Z" fill="#E0E0E0"/>
<path d="M220.017 230.65H149.513V237.061H220.017V230.65Z" fill="#E0E0E0"/>
<path d="M239.244 246.674H149.513V253.084H239.244V246.674Z" fill="#E0E0E0"/>
<path d="M184.763 262.698H149.513V269.108H184.763V262.698Z" fill="#41AAE2"/>
<g opacity="0.5">
<path opacity="0.5" d="M268.273 298C285.962 298 300.301 283.661 300.301 265.972C300.301 248.284 285.962 233.944 268.273 233.944C250.585 233.944 236.245 248.284 236.245 265.972C236.245 283.661 250.585 298 268.273 298Z" fill="url(#paint4_linear)"/>
</g>
<path d="M268.273 296.115C284.92 296.115 298.415 282.62 298.415 265.973C298.415 249.326 284.92 235.832 268.273 235.832C251.626 235.832 238.132 249.326 238.132 265.973C238.132 282.62 251.626 296.115 268.273 296.115Z" fill="#41AAE2"/>
<path d="M256 265.837L264.237 274L280.381 258" stroke="white" stroke-width="4" stroke-linecap="round"/>
<path d="M76.512 129.093C88.5429 126.725 96.3757 115.052 94.007 103.021C91.6384 90.9897 79.9652 83.1569 67.9343 85.5256C55.9034 87.8943 48.0706 99.5674 50.4393 111.598C52.8079 123.629 64.4811 131.462 76.512 129.093Z" fill="#ECF0F1"/>
<path d="M76.512 129.093C88.5429 126.725 96.3757 115.052 94.007 103.021C91.6384 90.9897 79.9652 83.1569 67.9343 85.5256C55.9034 87.8943 48.0706 99.5674 50.4393 111.598C52.8079 123.629 64.4811 131.462 76.512 129.093Z" fill="#FAD24D"/>
<path d="M69.5963 106.291L69.5899 109.382L67.7409 110.455L72.5601 128.74L80.0979 127.211L76.7445 108.319L75.3994 108.17L74.1565 105.263L69.5963 106.291Z" fill="#F0BA7D"/>
<path d="M68.3077 115.71C71.9246 116.66 75.3871 116.328 78.599 113.777L81.198 127.621C79.7245 128.27 78.1579 128.769 76.5121 129.093C74.6183 129.466 72.7335 129.586 70.8923 129.477L68.3077 115.71Z" fill="#21D0C3"/>
<path d="M76.0809 108.272L82.1413 108.708C83.7234 108.875 85.2297 109.494 85.5843 111.071L88.2059 122.722C87.0755 123.896 85.8118 124.95 84.4327 125.859L82.7903 119.453L83.1585 126.638C81.1418 127.779 78.9107 128.622 76.5123 129.094C76.4497 129.106 76.3872 129.117 76.3246 129.129L75.153 123.191L76.0809 108.272Z" fill="#EEF3F7"/>
<path d="M76.018 108.241L76.8362 108.398L80.1857 111.77L77.1457 112.318L79.2219 112.953L75.1531 123.19L76.018 108.241Z" fill="white"/>
<path d="M69.3406 109.537L63.8509 112.142C62.4369 112.871 61.2582 113.994 61.4993 115.592L63.3195 127.649C64.7968 128.297 66.35 128.787 67.9538 129.102L67.1434 122.391L69.4468 129.342C71.6809 129.624 73.9951 129.567 76.3246 129.128L75.1531 123.19L69.3406 109.537Z" fill="white"/>
<path d="M69.3881 109.487L68.5525 110.011L66.7842 114.287L69.8161 113.695L68.1115 115.04L75.1531 123.191L69.3881 109.487Z" fill="#EEF3F7"/>
<path d="M64.2801 99.9284C64.3755 100.922 64.9968 103.048 66.1632 102.733C66.1632 102.733 68.8418 107.358 72.2293 107.275C74.9565 106.201 75.7929 101.37 75.8394 100.916C76.2552 100.973 76.9887 98.9438 75.8604 97.6242C75.5368 97.2458 74.9259 97.7241 74.9259 97.7241L74.6296 96.495C70.2446 97.8093 66.6057 94.0343 66.6057 94.0343C65.2665 96.2235 65.0648 97.3623 65.3365 99.7038C65.3365 99.7038 64.9773 99.5681 64.6206 99.6305C64.5131 99.6492 64.3941 99.7695 64.2801 99.9284Z" fill="#FED298"/>
<path d="M69.5897 109.383L69.5963 106.361C67.5936 105.04 66.2285 102.721 66.2285 102.721C65.1106 103.073 64.0315 100.013 64.7788 99.7521C65.1206 99.6324 65.3777 99.6963 65.3777 99.6963C65.0716 97.2278 65.3947 96.3953 66.6057 94.0349C66.6057 94.0349 70.3573 98.2214 74.7388 96.9077L75.004 97.9174C75.1743 97.6682 75.522 97.3971 75.9478 97.8628C76.6406 98.6205 76.3411 100.711 75.7308 100.956C75.7004 101.275 75.4332 103.639 74.2395 105.458L75.3993 108.171C77.1824 108.383 78.8811 108.485 80.5883 108.596C78.7751 103.735 77.2326 98.3917 75.3349 93.9449C73.5138 89.6778 68.1063 89.4488 65.527 92.0109C65.527 92.0109 63.1703 93.5463 63.3764 97.059C63.5827 100.571 63.8264 100.866 63.8264 100.866L65.0753 111.561C66.5282 110.872 68.2299 110.172 69.5897 109.383Z" fill="#666666"/>
<path d="M82.826 119.622C81.9471 119.643 81.2178 118.947 81.1971 118.068C81.1766 117.189 81.8725 116.46 82.7514 116.439C83.6304 116.418 84.3597 117.115 84.3804 117.994C84.401 118.872 83.705 119.602 82.826 119.622Z" fill="#FEFEFE"/>
<path d="M82.8239 119.53C81.9961 119.549 81.3093 118.894 81.29 118.067C81.2706 117.239 81.9258 116.552 82.7538 116.532C83.5817 116.513 84.2684 117.169 84.2878 117.996C84.307 118.824 83.6519 119.511 82.8239 119.53Z" fill="#0F7986"/>
<path d="M82.8083 118.861C82.3505 118.871 81.9702 118.508 81.9596 118.051C81.9488 117.592 82.3116 117.213 82.7694 117.202C83.2275 117.191 83.6075 117.554 83.6182 118.012C83.6291 118.47 83.2665 118.85 82.8083 118.861Z" fill="#EBECEC"/>
<path d="M82.6053 117.324L82.9752 117.315L82.9482 116.163L82.5785 116.172L82.6053 117.324Z" fill="#FEFEFE"/>
<path d="M71.1309 122.246L71.775 121.981C72.0486 121.868 72.2515 121.654 72.3576 121.399C72.4635 121.145 72.4733 120.85 72.3605 120.576L70.7906 116.76C70.198 115.32 68.8752 114.787 67.5023 114.881C66.9761 114.917 66.4426 115.047 65.9417 115.253C65.4403 115.459 64.9707 115.742 64.5717 116.087C63.5325 116.984 62.9707 118.291 63.5642 119.734L65.1342 123.55C65.2468 123.823 65.4612 124.026 65.7156 124.132L65.716 124.132C65.9707 124.238 66.2651 124.248 66.5386 124.135L67.1823 123.87L67.0731 123.605L66.4293 123.87C66.2286 123.952 66.0123 123.945 65.8259 123.868L65.8259 123.868C65.6393 123.79 65.482 123.641 65.3994 123.441L63.8294 119.625C63.291 118.316 63.8071 117.124 64.758 116.304C65.1337 115.979 65.5769 115.712 66.0504 115.517C66.5238 115.323 67.0269 115.201 67.5224 115.167C68.7789 115.08 69.9879 115.564 70.5252 116.87L72.0954 120.686C72.1779 120.886 72.1706 121.102 72.093 121.289C72.015 121.476 71.8662 121.633 71.6657 121.715L71.0217 121.98L71.1309 122.246Z" fill="#21D0C3"/>
<path d="M71.119 117.307L70.8792 116.724C70.2685 115.24 68.9072 114.69 67.4956 114.787C66.9595 114.824 66.416 114.955 65.9057 115.165C65.3952 115.375 64.9166 115.664 64.51 116.014C63.4412 116.937 62.8642 118.283 63.4759 119.77L63.7159 120.353L64.1578 120.171L63.918 119.588C63.398 118.324 63.8988 117.171 64.8201 116.376C65.1884 116.058 65.6226 115.796 66.0869 115.605C66.551 115.414 67.0441 115.295 67.5296 115.262C68.7473 115.178 69.918 115.644 70.4372 116.906L70.6769 117.489L71.119 117.307Z" fill="#4D4D4D"/>
<path d="M66.6836 124.141L67.0281 124C67.1379 124.083 67.2875 124.107 67.4238 124.051C67.6288 123.967 67.7267 123.732 67.6423 123.527C67.5581 123.323 67.3236 123.225 67.1186 123.309C66.982 123.365 66.8931 123.488 66.8738 123.624L66.5294 123.766L66.6836 124.141Z" fill="#076673"/>
<path d="M71.4167 122.193L71.0725 122.335C71.0531 122.471 70.9642 122.594 70.8277 122.65C70.6228 122.734 70.3884 122.637 70.304 122.432C70.2199 122.227 70.3176 121.992 70.5224 121.908C70.6589 121.852 70.8086 121.877 70.9181 121.96L71.2625 121.818L71.4167 122.193Z" fill="#076673"/>
<path d="M66.1165 115.086L65.8441 114.424L65.5829 114.532L65.322 114.639L65.5973 115.308C65.6949 115.257 65.7947 115.211 65.8964 115.169C65.9688 115.139 66.0423 115.112 66.1165 115.086Z" fill="#666666"/>
<path d="M67.1918 123.644C67.2539 123.618 67.2833 123.547 67.2578 123.485C67.2324 123.423 67.1615 123.393 67.0994 123.419C67.0372 123.445 67.0078 123.515 67.0333 123.577C67.0588 123.639 67.1297 123.669 67.1918 123.644Z" fill="#0F7986"/>
<path d="M70.5975 122.241C70.6594 122.216 70.6889 122.145 70.6634 122.083C70.6378 122.021 70.5671 121.991 70.505 122.017C70.4428 122.042 70.4134 122.113 70.439 122.175C70.4643 122.237 70.5353 122.267 70.5975 122.241Z" fill="#0F7986"/>
<path d="M82.7634 118.861C82.3303 118.871 81.971 118.528 81.9607 118.095C81.9506 117.662 82.2933 117.303 82.7266 117.292C83.1596 117.282 83.5191 117.625 83.5293 118.058C83.5395 118.492 83.1965 118.851 82.7634 118.861Z" fill="#FEFEFE"/>
<path d="M68.5647 110.024C68.5526 110.026 64.3287 110.894 65.7721 114.455L65.3936 114.608C63.7663 110.594 68.468 109.628 68.4814 109.625L68.5647 110.024Z" fill="#4D4D4D"/>
<path d="M76.9322 107.982C77.626 107.865 78.9976 107.79 80.2704 108.837C81.5161 109.862 82.6627 111.968 82.9463 116.189L82.5398 116.216C82.2653 112.132 81.184 110.116 80.0116 109.152C78.8662 108.21 77.628 108.278 77.0014 108.383L76.9322 107.982Z" fill="#4D4D4D"/>
<circle cx="171.279" cy="124.388" r="21.8226" fill="#41AAE2"/>
<mask id="mask1" mask-type="alpha" maskUnits="userSpaceOnUse" x="149" y="102" width="45" height="45">
<circle cx="171.279" cy="124.388" r="21.8226" fill="#41AAE2"/>
</mask>
<g mask="url(#mask1)">
<path d="M188.682 141.318V146.554H153.875V141.318C153.875 139.933 154.724 138.685 156.014 138.185L163.353 135.299L169.082 141.594L170.879 137.932V137.925L171.279 137.105L171.686 137.925L173.484 141.594L179.205 135.299L186.551 138.185C187.834 138.693 188.682 139.933 188.682 141.318Z" fill="#F2F2F2"/>
<path d="M176.413 134.212H176.42V131.232C176.039 131.809 175.597 132.395 175.083 132.981L174.372 133.764C173.72 134.474 172.792 134.888 171.827 134.888H170.739C169.775 134.888 168.846 134.475 168.194 133.764L167.483 132.981C166.964 132.39 166.516 131.796 166.134 131.213V134.207L166.146 134.213L170.62 136.736L171.28 137.106L171.94 136.736L176.413 134.212Z" fill="#F8B64C"/>
<g opacity="0.1">
<g opacity="0.1">
<path opacity="0.1" d="M169.445 134.622C169.44 134.62 169.436 134.619 169.432 134.617C169.424 134.614 169.417 134.612 169.409 134.61C169.402 134.606 169.394 134.606 169.384 134.602L172.118 136.633L176.413 134.211H176.417L176.42 131.246C176.413 131.257 175.401 132.583 175.083 132.979L174.372 133.762C173.72 134.472 172.791 134.886 171.827 134.886H170.739C170.52 134.886 170.304 134.862 170.093 134.818C169.87 134.775 169.654 134.708 169.445 134.622Z" fill="#40596B"/>
</g>
</g>
<path d="M166.19 125.159C166.303 126.461 165.671 127.58 164.779 127.657C163.886 127.735 163.07 126.742 162.955 125.441C162.842 124.139 163.473 123.022 164.367 122.943C165.259 122.865 166.076 123.857 166.19 125.159Z" fill="#F8B64C"/>
<path d="M179.609 125.441C179.496 126.743 178.679 127.735 177.786 127.657C176.893 127.578 176.261 126.461 176.376 125.159C176.489 123.858 177.306 122.865 178.199 122.943C179.092 123.02 179.724 124.139 179.609 125.441Z" fill="#F8B64C"/>
<path d="M178.679 125.163C178.542 126.62 177.852 129.832 175.083 132.979L174.372 133.762C173.72 134.473 172.791 134.887 171.827 134.887H170.739C169.775 134.887 168.846 134.474 168.194 133.762L167.483 132.979C164.713 129.832 164.032 126.619 163.886 125.163C163.69 123.154 163.77 120.601 163.886 119.942C164.546 116.077 167.853 113.676 171.283 113.676C174.712 113.676 178.019 116.077 178.679 119.942C178.795 120.601 178.875 123.155 178.679 125.163Z" fill="#FFD15C"/>
<path d="M165.629 115.509C165.629 115.509 165.68 110.626 172.778 112.186C172.778 112.186 176.3 113.292 178.566 116.566C178.566 116.566 180.693 119.654 179.537 122.251C179.161 123.094 178.758 124.06 178.804 124.835C178.804 124.835 178.41 123.189 178.176 121.818C177.979 120.669 177.484 119.593 176.725 118.71L176.703 118.683C175.474 117.26 173.55 116.594 171.73 117.063C170.862 117.287 169.875 117.725 168.788 118.5C168.788 118.5 165.831 116.515 164.369 119.989C164.369 119.989 163.718 122.529 163.81 124.535C163.81 124.534 159.74 116.012 165.629 115.509Z" fill="#40596B"/>
<path d="M180.973 137.33C180.959 137.207 180.931 136.076 180.699 135.619C180.306 134.85 179.604 134.336 178.755 134.205L176.42 133.734V134.212H176.413L176.079 134.401L178.639 134.923C179.256 135.017 179.771 135.387 180.046 135.945C180.227 136.3 180.301 136.685 180.242 137.062L180.227 137.251C177.16 139.912 176.29 142.312 176.253 142.421C176.023 143.11 176.037 143.654 176.29 144.045C176.574 144.488 177.037 144.539 177.095 144.546L177.167 143.821C177.16 143.821 176.986 143.791 176.892 143.639C176.776 143.45 176.79 143.103 176.943 142.66C176.95 142.644 177.378 141.464 178.683 139.867C179.046 139.686 179.451 139.65 179.844 139.766C180.221 139.882 180.539 140.136 180.736 140.475C180.88 142.572 180.562 143.805 180.554 143.812C180.416 144.261 180.227 144.559 180.018 144.639C179.851 144.712 179.698 144.631 179.698 144.624L179.517 144.942L179.328 145.256C179.358 145.278 179.582 145.401 179.879 145.401C180.002 145.401 180.134 145.38 180.272 145.322C180.707 145.156 181.041 144.72 181.257 144.024C181.287 143.915 181.96 141.384 180.973 137.33ZM180.01 139.208C179.792 139.143 179.56 139.115 179.342 139.122C179.655 138.78 180.002 138.433 180.394 138.078C180.503 138.585 180.582 139.071 180.641 139.529C180.452 139.389 180.241 139.281 180.01 139.208Z" fill="#ACB3BA"/>
<path d="M177.733 144.311C177.675 144.602 177.391 144.792 177.1 144.735C176.81 144.678 177.016 143.621 177.308 143.679C177.599 143.736 177.79 144.019 177.733 144.311Z" fill="#F8B64C"/>
<path d="M178.908 144.674C178.785 144.945 178.903 145.264 179.173 145.388C179.444 145.512 179.892 144.534 179.622 144.409C179.354 144.285 179.033 144.404 178.908 144.674Z" fill="#F8B64C"/>
<path d="M166.145 134.212L166.133 134.206V133.733L164.565 134.056C162.892 134.4 161.485 135.467 160.7 136.983C159.917 138.5 159.861 140.267 160.547 141.83L161.212 141.538C160.614 140.177 160.66 138.639 161.345 137.317C162.027 135.997 163.254 135.066 164.71 134.767L166.482 134.402L166.145 134.212Z" fill="#ACB3BA"/>
<path d="M179.205 135.3L173.854 142.32L171.279 137.106L171.939 136.736L176.413 134.212H176.42L176.427 134.205L179.205 135.3Z" fill="#CDD6E0"/>
<path d="M163.353 135.301L168.712 142.321L171.279 137.107L170.619 136.737L166.145 134.213L166.13 134.206L163.353 135.301Z" fill="#CDD6E0"/>
<path d="M168.712 146.553L170.176 143.218L169.545 142.289L169.082 141.593L170.879 137.925L171.279 137.104L171.686 137.925V137.932L173.484 141.593L173.013 142.283L172.381 143.218L173.854 146.553H168.712Z" fill="#334A5E"/>
<path d="M173.484 141.593L173.012 142.283L171.286 138.751L169.545 142.289L169.082 141.593L170.879 137.925L171.279 137.104L171.685 137.925V137.932L173.484 141.593Z" fill="#2A4356"/>
<path d="M163.06 142.965C163.06 143.872 162.323 144.608 161.417 144.608C160.51 144.608 159.775 143.872 159.775 142.965C159.775 142.059 160.51 141.324 161.417 141.324C162.323 141.324 163.06 142.059 163.06 142.965Z" fill="#FF7058"/>
<path d="M162.52 142.965C162.52 143.574 162.027 144.068 161.418 144.068C160.808 144.068 160.314 143.574 160.314 142.965C160.314 142.357 160.808 141.862 161.418 141.862C162.027 141.862 162.52 142.356 162.52 142.965Z" fill="#F2F2F2"/>
<path d="M162.191 142.965C162.191 143.393 161.845 143.738 161.419 143.738C160.991 143.738 160.645 143.392 160.645 142.965C160.645 142.539 160.992 142.193 161.419 142.193C161.845 142.193 162.191 142.539 162.191 142.965Z" fill="#ACB3BA"/>
</g>
<circle cx="34.2365" cy="28.8727" r="2.27714" transform="rotate(-5.83589 34.2365 28.8727)" fill="#FAD24D"/>
<circle cx="122.182" cy="8.43956" r="2.27714" transform="rotate(-5.83589 122.182 8.43956)" fill="#FC907E"/>
<circle cx="155.716" cy="8.06387" r="1.51809" transform="rotate(-5.83589 155.716 8.06387)" fill="#40596B"/>
<path d="M64.8733 16.8446C65.1053 15.9457 66.3303 15.8205 66.7393 16.6539L66.9077 16.997C67.0363 17.259 67.2729 17.4517 67.5555 17.5246L67.9256 17.6202C68.8245 17.8521 68.9497 19.0771 68.1163 19.4861L67.7732 19.6545C67.5112 19.7831 67.3185 20.0198 67.2456 20.3024L67.15 20.6724C66.9181 21.5713 65.6931 21.6965 65.2841 20.8632L65.1157 20.5201C64.9871 20.2581 64.7504 20.0653 64.4678 19.9924L64.0978 19.8969C63.1989 19.6649 63.0737 18.4399 63.907 18.0309L64.2501 17.8625C64.5121 17.7339 64.7049 17.4973 64.7778 17.2147L64.8733 16.8446Z" fill="#41AAE2"/>
<path d="M179.783 16.1391C179.978 15.3834 181.008 15.2782 181.352 15.9787C181.46 16.199 181.659 16.361 181.896 16.4223C182.652 16.6173 182.757 17.6471 182.057 17.991C181.836 18.0991 181.674 18.298 181.613 18.5356C181.418 19.2912 180.388 19.3964 180.044 18.6959C179.936 18.4756 179.737 18.3136 179.5 18.2523C178.744 18.0573 178.639 17.0275 179.339 16.6837C179.56 16.5756 179.722 16.3766 179.783 16.1391Z" fill="#AC3DFA"/>
<path d="M8.00135 71.0834C8.19635 70.3278 9.22615 70.2225 9.56998 70.9231C9.67808 71.1433 9.87701 71.3054 10.1146 71.3667C10.8702 71.5617 10.9755 72.5915 10.2749 72.9353C10.0547 73.0434 9.89262 73.2423 9.83131 73.4799C9.63631 74.2355 8.60651 74.3408 8.26268 73.6402C8.15458 73.42 7.95565 73.2579 7.71808 73.1966C6.96245 73.0016 6.8572 71.9718 7.55775 71.628C7.778 71.5199 7.94004 71.321 8.00135 71.0834Z" fill="#E0E0E0"/>
<path d="M99.6611 19.516L101.976 20.8611L101.411 23.478L98.7484 23.7501L97.6666 21.3015L99.6611 19.516Z" fill="#21D0C3"/>
<defs>
<linearGradient id="paint0_linear" x1="247.374" y1="230.777" x2="278.367" y2="25.3621" gradientUnits="userSpaceOnUse">
<stop stop-color="#808080" stop-opacity="0.25"/>
<stop offset="0.54" stop-color="#808080" stop-opacity="0.12"/>
<stop offset="1" stop-color="#808080" stop-opacity="0.1"/>
</linearGradient>
<linearGradient id="paint1_linear" x1="25088.7" y1="31480.3" x2="25814.6" y2="26668.9" gradientUnits="userSpaceOnUse">
<stop stop-color="#808080" stop-opacity="0.25"/>
<stop offset="0.54" stop-color="#808080" stop-opacity="0.12"/>
<stop offset="1" stop-color="#808080" stop-opacity="0.1"/>
</linearGradient>
<linearGradient id="paint2_linear" x1="17249.3" y1="-1682.72" x2="16420.3" y2="-6739.99" gradientUnits="userSpaceOnUse">
<stop stop-color="#808080" stop-opacity="0.25"/>
<stop offset="0.54" stop-color="#808080" stop-opacity="0.12"/>
<stop offset="1" stop-color="#808080" stop-opacity="0.1"/>
</linearGradient>
<linearGradient id="paint3_linear" x1="72403.7" y1="148162" x2="72403.7" y2="34451.6" gradientUnits="userSpaceOnUse">
<stop stop-color="#808080" stop-opacity="0.25"/>
<stop offset="0.54" stop-color="#808080" stop-opacity="0.12"/>
<stop offset="1" stop-color="#808080" stop-opacity="0.1"/>
</linearGradient>
<linearGradient id="paint4_linear" x1="42005.2" y1="48143.9" x2="42005.2" y2="37333.2" gradientUnits="userSpaceOnUse">
<stop stop-color="#808080" stop-opacity="0.25"/>
<stop offset="0.54" stop-color="#808080" stop-opacity="0.12"/>
<stop offset="1" stop-color="#808080" stop-opacity="0.1"/>
</linearGradient>
</defs>
</svg>
