<?xml version="1.0" encoding="utf-8"?>
<!-- Generator: Adobe Illustrator 21.0.0, SVG Export Plug-In . SVG Version: 6.00 Build 0)  -->
<svg version="1.1" id="Layer_1" xmlns="http://www.w3.org/2000/svg" xmlns:xlink="http://www.w3.org/1999/xlink" x="0px" y="0px"
	 viewBox="0 0 248 304" style="enable-background:new 0 0 248 304;" xml:space="preserve">
<style type="text/css">
	.st0{opacity:0.5;}
	.st1{opacity:0.5;fill:url(#SVGID_1_);enable-background:new    ;}
	.st2{fill:#FFFFFF;}
	.st3{fill:#E0E0E0;}
	.st4{fill:#21D0C3;}
	.st5{opacity:0.5;fill:url(#SVGID_2_);enable-background:new    ;}
	.st6{fill:none;stroke:#FFFFFF;stroke-width:4;stroke-linecap:round;}
	.st7{fill:#41AAE2;filter:url(#Adobe_OpacityMaskFilter);}
	.st8{mask:url(#mask0);}
	.st9{fill:#B2B2B2;}
	.st10{fill:#FC907E;}
	.st11{fill:#40596B;}
	.st12{fill:#AC3DFA;}
	.st13{fill:#FAD24D;}
	.st14{fill:#41AAE2;}
</style>
<g class="st0">
	
		<linearGradient id="SVGID_1_" gradientUnits="userSpaceOnUse" x1="124.0922" y1="-147824" x2="124.0922" y2="-34113.6016" gradientTransform="matrix(1 0 0 -1 0 306)">
		<stop  offset="0" style="stop-color:#808080;stop-opacity:0.25"/>
		<stop  offset="0.54" style="stop-color:#808080;stop-opacity:0.12"/>
		<stop  offset="1" style="stop-color:#808080;stop-opacity:0.1"/>
	</linearGradient>
	<path class="st1" d="M199.3,45H48.9v207.7h150.4V45z"/>
</g>
<g>
	<path class="st2" d="M194.9,45H48.4v203.1h146.5V45z"/>
</g>
<path class="st3" d="M176.1,134.6H70.4v6.4h105.8V134.6z"/>
<path class="st3" d="M176.1,150.6H70.4v6.4h105.8V150.6z"/>
<path class="st3" d="M176.1,83.3h-54.5v6.4h54.5V83.3z"/>
<path class="st4" d="M171.3,99.4h-44.9v6.4h44.9V99.4z"/>
<path class="st3" d="M163.3,166.7H70.4v6.4h92.9V166.7z"/>
<path class="st3" d="M150.5,182.7H70.4v6.4h80.1V182.7z"/>
<path class="st3" d="M140.9,198.7H70.4v6.4h70.5V198.7z"/>
<path class="st3" d="M160.1,214.7H70.4v6.4h89.7V214.7z"/>
<path class="st4" d="M105.6,230.8H70.4v6.4h35.3V230.8z"/>
<g class="st0">
	
		<linearGradient id="SVGID_2_" gradientUnits="userSpaceOnUse" x1="189.127" y1="-47805.8984" x2="189.127" y2="-36995.1992" gradientTransform="matrix(1 0 0 -1 0 306)">
		<stop  offset="0" style="stop-color:#808080;stop-opacity:0.25"/>
		<stop  offset="0.54" style="stop-color:#808080;stop-opacity:0.12"/>
		<stop  offset="1" style="stop-color:#808080;stop-opacity:0.1"/>
	</linearGradient>
	<path class="st5" d="M189.1,266.1c17.7,0,32-14.3,32-32c0-17.7-14.3-32-32-32c-17.7,0-32,14.3-32,32
		C157.1,251.7,171.4,266.1,189.1,266.1z"/>
</g>
<path class="st4" d="M189,264.3c16.6,0,30.1-13.5,30.1-30.1s-13.5-30.1-30.1-30.1c-16.6,0-30.1,13.5-30.1,30.1
	S172.3,264.3,189,264.3z"/>
<path class="st6" d="M177,233.8l8.2,8.2l16.1-16"/>
<circle class="st3" cx="92.1" cy="92.5" r="21.8"/>
<defs>
	<filter id="Adobe_OpacityMaskFilter" filterUnits="userSpaceOnUse" x="74.9" y="83.1" width="34" height="34">
		<feColorMatrix  type="matrix" values="1 0 0 0 0  0 1 0 0 0  0 0 1 0 0  0 0 0 1 0"/>
	</filter>
</defs>
<mask maskUnits="userSpaceOnUse" x="74.9" y="83.1" width="34" height="34" id="mask0">
	<circle class="st7" cx="92.1" cy="92.5" r="21.8"/>
</mask>
<g class="st8">
	<path class="st9" d="M103.9,105c-1.9-1.9-4.1-3.2-6.5-4.1c2.6-1.8,4.3-4.7,4.3-8.1c0-5.4-4.4-9.8-9.8-9.8c-5.4,0-9.8,4.4-9.8,9.8
		c0,3.4,1.7,6.3,4.3,8.1c-2.4,0.8-4.6,2.2-6.5,4.1c-3.2,3.2-5,7.5-5,12h2.7c0-7.9,6.4-14.3,14.3-14.3s14.3,6.4,14.3,14.3h2.7
		C108.9,112.5,107.1,108.3,103.9,105z M91.9,100.1c-4,0-7.2-3.2-7.2-7.2c0-4,3.2-7.2,7.2-7.2c4,0,7.2,3.2,7.2,7.2
		C99,96.8,95.8,100.1,91.9,100.1z"/>
</g>
<path class="st10" d="M86.6,118.5"/>
<path class="st10" d="M82.8,121.1"/>
<path class="st11" d="M56.5,135"/>
<path class="st11" d="M54,136.7"/>
<path class="st12" d="M34.5,108.1c0.2,0.8-0.7,1.3-1.3,0.9c-0.2-0.1-0.5-0.2-0.7-0.1c-0.8,0.2-1.3-0.7-0.9-1.3
	c0.1-0.2,0.2-0.5,0.1-0.7c-0.2-0.8,0.7-1.3,1.3-0.9c0.2,0.1,0.5,0.2,0.7,0.1c0.8-0.2,1.3,0.7,0.9,1.3
	C34.5,107.6,34.4,107.8,34.5,108.1z"/>
<path class="st3" d="M156.2,4.2c0.2,0.8-0.7,1.3-1.3,0.9c-0.2-0.1-0.5-0.2-0.7-0.1c-0.8,0.2-1.3-0.7-0.9-1.3
	c0.1-0.2,0.2-0.5,0.1-0.7c-0.2-0.8,0.7-1.3,1.3-0.9c0.2,0.1,0.5,0.2,0.7,0.1c0.8-0.2,1.3,0.7,0.9,1.3C156.2,3.8,156.2,4,156.2,4.2z"
	/>
<rect x="147.7" y="29.2" class="st2" width="14.2" height="8"/>
<ellipse transform="matrix(0.9461 -0.3239 0.3239 0.9461 -16.3122 10.9564)" class="st13" cx="24.8" cy="54.5" rx="2.3" ry="2.3"/>
<ellipse transform="matrix(0.9461 -0.3239 0.3239 0.9461 4.665394e-02 33.2624)" class="st10" cx="100" cy="16.5" rx="2.3" ry="2.3"/>
<ellipse transform="matrix(0.9461 -0.3239 0.3239 0.9461 3.1642 43.0072)" class="st11" cx="130.8" cy="12" rx="1.5" ry="1.5"/>
<path class="st14" d="M45.5,31.9c0-0.9,1.2-1.3,1.8-0.6l0.2,0.3c0.2,0.2,0.5,0.4,0.8,0.4l0.4,0c0.9,0,1.3,1.2,0.6,1.8l-0.3,0.2
	c-0.2,0.2-0.4,0.5-0.4,0.8l0,0.4c0,0.9-1.2,1.3-1.8,0.6l-0.2-0.3c-0.2-0.2-0.5-0.4-0.8-0.4l-0.4,0c-0.9,0-1.3-1.2-0.6-1.8l0.3-0.2
	c0.2-0.2,0.4-0.5,0.4-0.8L45.5,31.9z"/>
<path class="st12" d="M152.5,17.8c0-0.8,1-1.1,1.5-0.5c0.2,0.2,0.4,0.3,0.6,0.3c0.8,0,1.1,1,0.5,1.5c-0.2,0.2-0.3,0.4-0.3,0.6
	c0,0.8-1,1.1-1.5,0.5c-0.2-0.2-0.4-0.3-0.6-0.3c-0.8,0-1.1-1-0.5-1.5C152.4,18.3,152.5,18.1,152.5,17.8z"/>
<path class="st3" d="M5.9,91.5c0-0.8,1-1.1,1.5-0.5c0.2,0.2,0.4,0.3,0.6,0.3c0.8,0,1.1,1,0.5,1.5c-0.2,0.2-0.3,0.4-0.3,0.6
	c0,0.8-1,1.1-1.5,0.5c-0.2-0.2-0.4-0.3-0.6-0.3c-0.8,0-1.1-1-0.5-1.5C5.8,92,5.9,91.7,5.9,91.5z"/>
<path class="st4" d="M78.6,26.6l2.6,0.8l0,2.7l-2.5,0.9l-1.6-2.1L78.6,26.6z"/>
<ellipse transform="matrix(0.9461 -0.3239 0.3239 0.9461 -4.7774 50.8845)" class="st13" cx="150.5" cy="39.8" rx="2.3" ry="2.3"/>
</svg>
