<svg xmlns="http://www.w3.org/2000/svg" xmlns:xlink="http://www.w3.org/1999/xlink" version="1.1" style="enable-background:new 0 0 248 304;" xml:space="preserve" width="248" height="304"><rect id="backgroundrect" width="100%" height="100%" x="0" y="0" fill="none" stroke="none"/>
<style type="text/css">
	.st0{opacity:0.5;}
	.st1{opacity:0.5;fill:url(#SVGID_1_);enable-background:new    ;}
	.st2{fill:#FFFFFF;}
	.st3{fill:#E0E0E0;}
	.st4{fill:#21D0C3;}
	.st5{opacity:0.5;fill:url(#SVGID_2_);enable-background:new    ;}
	.st6{fill:none;stroke:#FFFFFF;stroke-width:4;stroke-linecap:round;}
	.st7{fill:#41AAE2;filter:url(#Adobe_OpacityMaskFilter);}
	.st8{mask:url(#mask0);}
	.st9{fill:#B2B2B2;}
	.st10{fill:#FC907E;}
	.st11{fill:#40596B;}
	.st12{fill:#AC3DFA;}
	.st13{fill:#FAD24D;}
	.st14{fill:#41AAE2;}
</style>















<defs>
	<filter id="Adobe_OpacityMaskFilter" filterUnits="userSpaceOnUse" x="74.9000015258789" y="83.0999984741211" width="34" height="34">
		<feColorMatrix type="matrix" values="1 0 0 0 0  0 1 0 0 0  0 0 1 0 0  0 0 0 1 0"/>
	</filter>
</defs>
<mask maskUnits="userSpaceOnUse" x="74.9000015258789" y="83.0999984741211" width="34" height="34" id="mask0">
	<circle class="st7" cx="92.0999984741211" cy="92.5" r="21.799999237060547" id="svg_1"/>
</mask>
















<g class="currentLayer" style=""><title>Layer 1</title><g class="st0" id="svg_2">
	
		<linearGradient id="SVGID_1_" gradientUnits="userSpaceOnUse" x1="124.09220123291016" y1="-147824" x2="124.09220123291016" y2="-34113.6015625" gradientTransform="matrix(1 0 0 -1 0 306)">
		<stop offset="0" style="stop-color:#808080;stop-opacity:0.25"/>
		<stop offset="0.54" style="stop-color:#808080;stop-opacity:0.12"/>
		<stop offset="1" style="stop-color:#808080;stop-opacity:0.1"/>
	</linearGradient>
	<path class="st1" d="M199.3,45H48.9v207.7h150.4V45z" id="svg_3"/>
</g><g id="svg_4" class="" stroke="#ffffff" stroke-opacity="1" opacity="0">
	<path class="st2" d="M194.9,45H48.4v203.1h146.5V45z" id="svg_5" stroke="#ffffff" stroke-opacity="1" opacity="0"/>
</g><path class="st3" d="M176.1,134.6H70.4v6.4h105.8V134.6z" id="svg_6"/><path class="st3" d="M176.1,150.6H70.4v6.4h105.8V150.6z" id="svg_7"/><path class="st3" d="M176.1,83.3h-54.5v6.4h54.5V83.3z" id="svg_8"/><path class="st4" d="M171.3,99.4h-44.9v6.4h44.9V99.4z" id="svg_9"/><path class="st3" d="M163.3,166.7H70.4v6.4h92.9V166.7z" id="svg_10"/><path class="st3" d="M150.5,182.7H70.4v6.4h80.1V182.7z" id="svg_11"/><path class="st3" d="M140.9,198.7H70.4v6.4h70.5V198.7z" id="svg_12"/><path class="st3" d="M160.1,214.7H70.4v6.4h89.7V214.7z" id="svg_13"/><path class="st4" d="M105.6,230.8H70.4v6.4h35.3V230.8z" id="svg_14"/><g class="st0" id="svg_15">
	
		<linearGradient id="SVGID_2_" gradientUnits="userSpaceOnUse" x1="189.1269989013672" y1="-47805.8984375" x2="189.1269989013672" y2="-36995.19921875" gradientTransform="matrix(1 0 0 -1 0 306)">
		<stop offset="0" style="stop-color:#808080;stop-opacity:0.25"/>
		<stop offset="0.54" style="stop-color:#808080;stop-opacity:0.12"/>
		<stop offset="1" style="stop-color:#808080;stop-opacity:0.1"/>
	</linearGradient>
	<path class="st5" d="M189.1,266.1c17.7,0,32-14.3,32-32c0-17.7-14.3-32-32-32c-17.7,0-32,14.3-32,32   C157.1,251.7,171.4,266.1,189.1,266.1z" id="svg_16"/>
</g><path class="st4" d="M189,264.3c16.6,0,30.1-13.5,30.1-30.1s-13.5-30.1-30.1-30.1c-16.6,0-30.1,13.5-30.1,30.1  S172.3,264.3,189,264.3z" id="svg_17"/><path class="st6" d="M177,233.8l8.2,8.2l16.1-16" id="svg_18"/><circle class="st3" cx="92.0999984741211" cy="92.5" r="21.799999237060547" id="svg_19"/><g class="st8" id="svg_20">
	<path class="st9" d="M103.9,105c-1.9-1.9-4.1-3.2-6.5-4.1c2.6-1.8,4.3-4.7,4.3-8.1c0-5.4-4.4-9.8-9.8-9.8c-5.4,0-9.8,4.4-9.8,9.8   c0,3.4,1.7,6.3,4.3,8.1c-2.4,0.8-4.6,2.2-6.5,4.1c-3.2,3.2-5,7.5-5,12h2.7c0-7.9,6.4-14.3,14.3-14.3s14.3,6.4,14.3,14.3h2.7   C108.9,112.5,107.1,108.3,103.9,105z M91.9,100.1c-4,0-7.2-3.2-7.2-7.2c0-4,3.2-7.2,7.2-7.2c4,0,7.2,3.2,7.2,7.2   C99,96.8,95.8,100.1,91.9,100.1z" id="svg_21"/>
</g><path class="st10" d="M86.6,118.5" id="svg_22"/><path class="st10" d="M82.8,121.1" id="svg_23"/><path class="st11" d="M56.5,135" id="svg_24"/><path class="st11" d="M54,136.7" id="svg_25"/><path class="st12" d="M34.5,108.1c0.2,0.8-0.7,1.3-1.3,0.9c-0.2-0.1-0.5-0.2-0.7-0.1c-0.8,0.2-1.3-0.7-0.9-1.3  c0.1-0.2,0.2-0.5,0.1-0.7c-0.2-0.8,0.7-1.3,1.3-0.9c0.2,0.1,0.5,0.2,0.7,0.1c0.8-0.2,1.3,0.7,0.9,1.3  C34.5,107.6,34.4,107.8,34.5,108.1z" id="svg_26"/><path class="st3" d="M156.2,4.2c0.2,0.8-0.7,1.3-1.3,0.9c-0.2-0.1-0.5-0.2-0.7-0.1c-0.8,0.2-1.3-0.7-0.9-1.3  c0.1-0.2,0.2-0.5,0.1-0.7c-0.2-0.8,0.7-1.3,1.3-0.9c0.2,0.1,0.5,0.2,0.7,0.1c0.8-0.2,1.3,0.7,0.9,1.3C156.2,3.8,156.2,4,156.2,4.2z" id="svg_27"/><rect x="147.6999969482422" y="29.200000762939453" class="st2" width="14.199999809265137" height="8" id="svg_28"/><ellipse transform="matrix(0.9461,-0.3239,0.3239,0.9461,-16.3122,10.9564) " class="st13" cx="24.799999237060547" cy="54.5" rx="2.299999952316284" ry="2.299999952316284" id="svg_29"/><ellipse transform="matrix(0.9461,-0.3239,0.3239,0.9461,0.04665394,33.2624) " class="st10" cx="100" cy="16.5" rx="2.299999952316284" ry="2.299999952316284" id="svg_30"/><ellipse transform="matrix(0.9461,-0.3239,0.3239,0.9461,3.1642,43.0072) " class="st11" cx="130.8000030517578" cy="12" rx="1.5" ry="1.5" id="svg_31"/><path class="st14" d="M45.5,31.9c0-0.9,1.2-1.3,1.8-0.6l0.2,0.3c0.2,0.2,0.5,0.4,0.8,0.4l0.4,0c0.9,0,1.3,1.2,0.6,1.8l-0.3,0.2  c-0.2,0.2-0.4,0.5-0.4,0.8l0,0.4c0,0.9-1.2,1.3-1.8,0.6l-0.2-0.3c-0.2-0.2-0.5-0.4-0.8-0.4l-0.4,0c-0.9,0-1.3-1.2-0.6-1.8l0.3-0.2  c0.2-0.2,0.4-0.5,0.4-0.8L45.5,31.9z" id="svg_32"/><path class="st12" d="M152.5,17.8c0-0.8,1-1.1,1.5-0.5c0.2,0.2,0.4,0.3,0.6,0.3c0.8,0,1.1,1,0.5,1.5c-0.2,0.2-0.3,0.4-0.3,0.6  c0,0.8-1,1.1-1.5,0.5c-0.2-0.2-0.4-0.3-0.6-0.3c-0.8,0-1.1-1-0.5-1.5C152.4,18.3,152.5,18.1,152.5,17.8z" id="svg_33"/><path class="st3" d="M5.9,91.5c0-0.8,1-1.1,1.5-0.5c0.2,0.2,0.4,0.3,0.6,0.3c0.8,0,1.1,1,0.5,1.5c-0.2,0.2-0.3,0.4-0.3,0.6  c0,0.8-1,1.1-1.5,0.5c-0.2-0.2-0.4-0.3-0.6-0.3c-0.8,0-1.1-1-0.5-1.5C5.8,92,5.9,91.7,5.9,91.5z" id="svg_34"/><path class="st4" d="M78.6,26.6l2.6,0.8l0,2.7l-2.5,0.9l-1.6-2.1L78.6,26.6z" id="svg_35"/><ellipse transform="matrix(0.9461,-0.3239,0.3239,0.9461,-4.7774,50.8845) " class="st13" cx="150.5" cy="39.79999923706055" rx="2.299999952316284" ry="2.299999952316284" id="svg_36"/></g></svg>