<?xml version="1.0" encoding="utf-8"?>
<!-- Generator: Adobe Illustrator 21.0.0, SVG Export Plug-In . SVG Version: 6.00 Build 0)  -->
<svg version="1.1" id="Layer_1" xmlns="http://www.w3.org/2000/svg" xmlns:xlink="http://www.w3.org/1999/xlink" x="0px" y="0px"
	 viewBox="0 0 256 224" style="enable-background:new 0 0 256 224;" xml:space="preserve">
<style type="text/css">
	.st0{fill:#FFFFFF;}
	.st1{fill:#E2E5E7;}
	.st2{fill:#B0B7BD;}
	.st3{fill:#CAD1D8;}
	.st4{fill:#F8B64C;}
	.st5{fill:#C8C8C8;}
	.st6{fill:#41AAE2;}
</style>
<g>
	<path class="st0" d="M5,0h246c2.8,0,5,2.2,5,5v214c0,2.8-2.2,5-5,5H5c-2.8,0-5-2.2-5-5V5C0,2.2,2.2,0,5,0z"/>
</g>
<path class="st1" d="M109.7,53.1c-2.5,0-4.6,2.1-4.6,4.6v64c0,2.5,2.1,4.6,4.6,4.6h45.7c2.5,0,4.6-2.1,4.6-4.6V71.4l-18.3-18.3
	H109.7z"/>
<path class="st2" d="M146.3,71.4H160l-18.3-18.3v13.7C141.7,69.4,143.8,71.4,146.3,71.4z"/>
<path class="st3" d="M160,85.1l-13.7-13.7H160V85.1z"/>
<path class="st4" d="M150.9,112.6c0,1.3-1,2.3-2.3,2.3H98.3c-1.3,0-2.3-1-2.3-2.3V89.7c0-1.3,1-2.3,2.3-2.3h50.3
	c1.3,0,2.3,1,2.3,2.3V112.6z"/>
<path class="st3" d="M148.6,114.9h-43.4v2.3h43.4c1.3,0,2.3-1,2.3-2.3v-2.3C150.9,113.8,149.8,114.9,148.6,114.9z"/>
<path class="st5" d="M89.6,166v6.5c0,0.7-0.1,1.3-0.4,1.9c-0.3,0.6-0.7,1-1.3,1.3c-0.6,0.3-1.3,0.5-2.2,0.5c-1.3,0-2.2-0.3-2.9-1
	c-0.7-0.7-1-1.6-1-2.7V166h1.5v6.4c0,1.7,0.8,2.5,2.4,2.5c0.8,0,1.4-0.2,1.8-0.7c0.4-0.4,0.6-1.1,0.6-1.8V166H89.6z M95.7,168.3
	c0.9,0,1.6,0.3,2.2,1c0.6,0.7,0.8,1.6,0.8,2.9c0,1.3-0.3,2.3-0.8,2.9c-0.6,0.7-1.3,1-2.2,1c-0.6,0-1.1-0.1-1.4-0.3
	c-0.4-0.2-0.6-0.5-0.9-0.8h-0.1c0,0.2,0.1,0.4,0.1,0.6c0,0.2,0,0.4,0,0.6v3.1H92v-10.9h1.2l0.2,1h0.1c0.2-0.3,0.5-0.6,0.9-0.8
	C94.7,168.4,95.1,168.3,95.7,168.3z M95.4,169.5c-0.7,0-1.2,0.2-1.5,0.6c-0.3,0.4-0.4,1-0.4,1.8v0.2c0,0.9,0.1,1.5,0.4,2
	c0.3,0.5,0.8,0.7,1.5,0.7c0.6,0,1.1-0.3,1.4-0.8c0.3-0.5,0.4-1.2,0.4-2c0-0.8-0.1-1.5-0.4-1.9C96.5,169.8,96,169.5,95.4,169.5z
	 M102.1,176h-1.5v-10.6h1.5V176z M111.1,172.2c0,1.3-0.3,2.2-1,2.9s-1.5,1-2.6,1c-0.7,0-1.3-0.2-1.8-0.5c-0.5-0.3-0.9-0.8-1.2-1.3
	c-0.3-0.6-0.4-1.3-0.4-2.1c0-1.3,0.3-2.2,1-2.9c0.6-0.7,1.5-1,2.6-1c0.7,0,1.3,0.2,1.8,0.5c0.5,0.3,0.9,0.7,1.2,1.3
	C111,170.7,111.1,171.4,111.1,172.2z M105.6,172.2c0,0.8,0.2,1.5,0.5,2c0.3,0.5,0.8,0.7,1.5,0.7c0.7,0,1.2-0.2,1.5-0.7
	c0.3-0.5,0.5-1.1,0.5-2c0-0.9-0.2-1.5-0.5-2c-0.3-0.5-0.8-0.7-1.5-0.7s-1.2,0.2-1.5,0.7C105.7,170.7,105.6,171.4,105.6,172.2z
	 M115.9,168.3c0.9,0,1.6,0.2,2.1,0.6c0.5,0.4,0.7,1.1,0.7,1.9v5.1h-1.1l-0.3-1.1h-0.1c-0.3,0.4-0.7,0.7-1,0.9
	c-0.4,0.2-0.8,0.3-1.5,0.3c-0.7,0-1.2-0.2-1.7-0.5c-0.4-0.4-0.7-1-0.7-1.7c0-0.8,0.3-1.3,0.9-1.8c0.6-0.4,1.5-0.6,2.7-0.7l1.3,0V171
	c0-0.6-0.1-0.9-0.4-1.2c-0.3-0.2-0.6-0.4-1.1-0.4c-0.4,0-0.8,0.1-1.1,0.2s-0.7,0.2-1,0.4l-0.5-1.1c0.4-0.2,0.8-0.3,1.2-0.5
	C114.9,168.4,115.4,168.3,115.9,168.3z M117.3,172.4l-1,0c-0.9,0-1.5,0.2-1.8,0.4c-0.3,0.2-0.5,0.6-0.5,1c0,0.4,0.1,0.7,0.3,0.9
	c0.2,0.2,0.5,0.3,0.9,0.3c0.6,0,1.1-0.2,1.4-0.5c0.4-0.3,0.6-0.8,0.6-1.5V172.4z M123.6,176.1c-0.9,0-1.6-0.3-2.2-1
	c-0.6-0.7-0.8-1.6-0.8-2.9c0-1.3,0.3-2.3,0.8-2.9c0.6-0.7,1.3-1,2.2-1c0.6,0,1,0.1,1.4,0.3s0.7,0.5,0.9,0.8h0.1c0-0.1,0-0.3-0.1-0.6
	s0-0.5,0-0.7v-2.8h1.5V176h-1.2l-0.3-1h-0.1c-0.2,0.3-0.5,0.6-0.9,0.8C124.7,176,124.2,176.1,123.6,176.1z M124,174.9
	c0.7,0,1.2-0.2,1.5-0.6c0.3-0.4,0.4-1,0.4-1.8v-0.2c0-0.9-0.1-1.5-0.4-2c-0.3-0.5-0.8-0.7-1.6-0.7c-0.6,0-1.1,0.2-1.4,0.7
	c-0.3,0.5-0.5,1.2-0.5,2s0.2,1.5,0.5,2C122.9,174.7,123.4,174.9,124,174.9z M130.5,165.6c0.2,0,0.4,0.1,0.6,0.2s0.3,0.4,0.3,0.7
	c0,0.3-0.1,0.5-0.3,0.7c-0.2,0.1-0.4,0.2-0.6,0.2c-0.2,0-0.4-0.1-0.6-0.2c-0.2-0.1-0.2-0.4-0.2-0.7c0-0.3,0.1-0.5,0.2-0.7
	C130,165.6,130.2,165.6,130.5,165.6z M131.2,168.5v7.5h-1.5v-7.5H131.2z M137.3,168.3c0.9,0,1.6,0.2,2,0.7c0.5,0.4,0.7,1.1,0.7,2.1
	v4.9h-1.5v-4.7c0-1.2-0.5-1.8-1.6-1.8c-0.8,0-1.3,0.2-1.6,0.7c-0.3,0.5-0.4,1.1-0.4,2v3.8h-1.5v-7.5h1.2l0.2,1h0.1
	c0.2-0.4,0.6-0.7,1-0.9C136.4,168.4,136.9,168.3,137.3,168.3z M144.9,168.3c1,0,1.8,0.4,2.3,1.1h0.1l0.2-1h1.2v7.6
	c0,1.1-0.3,1.9-0.9,2.4c-0.6,0.6-1.4,0.8-2.6,0.8c-0.6,0-1.1,0-1.5-0.1c-0.4-0.1-0.9-0.2-1.2-0.4v-1.3c0.8,0.4,1.8,0.6,2.8,0.6
	c0.6,0,1.1-0.2,1.4-0.5c0.3-0.3,0.5-0.8,0.5-1.5v-0.3c0-0.1,0-0.3,0-0.5c0-0.2,0-0.3,0-0.4h-0.1c-0.3,0.4-0.6,0.7-1,0.9
	c-0.4,0.2-0.8,0.3-1.3,0.3c-1,0-1.7-0.3-2.2-1c-0.5-0.7-0.8-1.6-0.8-2.9c0-1.2,0.3-2.2,0.8-2.9C143.2,168.7,144,168.3,144.9,168.3z
	 M145.3,169.5c-0.6,0-1,0.2-1.4,0.7c-0.3,0.5-0.5,1.1-0.5,2c0,0.9,0.2,1.5,0.5,2c0.3,0.5,0.8,0.7,1.4,0.7c0.7,0,1.2-0.2,1.5-0.6
	c0.3-0.4,0.5-1,0.5-1.9v-0.3c0-1-0.2-1.7-0.5-2.1C146.5,169.8,146,169.5,145.3,169.5z M156.3,176h-1.5v-10h5.6v1.3h-4.1v3.3h3.9v1.3
	h-3.9V176z M162.8,165.6c0.2,0,0.4,0.1,0.6,0.2c0.2,0.1,0.3,0.4,0.3,0.7c0,0.3-0.1,0.5-0.3,0.7c-0.2,0.1-0.4,0.2-0.6,0.2
	c-0.2,0-0.4-0.1-0.6-0.2c-0.2-0.1-0.2-0.4-0.2-0.7c0-0.3,0.1-0.5,0.2-0.7C162.4,165.6,162.6,165.6,162.8,165.6z M163.5,168.5v7.5
	h-1.5v-7.5H163.5z M167.4,176h-1.5v-10.6h1.5V176z M172.7,168.3c1,0,1.8,0.3,2.3,0.9c0.6,0.6,0.9,1.4,0.9,2.5v0.8h-5.1
	c0,0.8,0.2,1.4,0.6,1.8c0.4,0.4,0.9,0.6,1.6,0.6c0.5,0,0.9,0,1.3-0.1c0.4-0.1,0.8-0.2,1.2-0.4v1.2c-0.4,0.2-0.8,0.3-1.1,0.4
	c-0.4,0.1-0.8,0.1-1.4,0.1c-0.7,0-1.4-0.1-1.9-0.4c-0.6-0.3-1-0.7-1.3-1.3c-0.3-0.6-0.5-1.3-0.5-2.1c0-0.8,0.1-1.6,0.4-2.2
	c0.3-0.6,0.7-1,1.2-1.3C171.4,168.5,172,168.3,172.7,168.3z M172.7,169.5c-0.5,0-1,0.2-1.3,0.5c-0.3,0.3-0.5,0.8-0.6,1.5h3.6
	c0-0.6-0.2-1.1-0.4-1.4C173.7,169.6,173.2,169.5,172.7,169.5z"/>
<circle class="st0" cx="112.9" cy="101.1" r="1.2"/>
<circle class="st0" cx="123.4" cy="101.1" r="1.2"/>
<circle class="st0" cx="133.9" cy="101.1" r="1.2"/>
<path class="st1" d="M70,196.9h116c1.1,0,2,0.9,2,2l0,0c0,1.1-0.9,2-2,2H70c-1.1,0-2-0.9-2-2l0,0C68,197.8,68.9,196.9,70,196.9z"/>
<path class="st6" d="M70,196.9h46c1.1,0,2,0.9,2,2l0,0c0,1.1-0.9,2-2,2H70c-1.1,0-2-0.9-2-2l0,0C68,197.8,68.9,196.9,70,196.9z"/>
</svg>
