<?xml version="1.0" encoding="utf-8"?>
<!-- Generator: Adobe Illustrator 21.0.0, SVG Export Plug-In . SVG Version: 6.00 Build 0)  -->
<svg version="1.1" id="Layer_1" xmlns="http://www.w3.org/2000/svg" xmlns:xlink="http://www.w3.org/1999/xlink" x="0px" y="0px"
	 viewBox="0 0 256 224" style="enable-background:new 0 0 256 224;" xml:space="preserve">
<style type="text/css">
	.st0{fill:#FFFFFF;}
	.st1{fill:#E2E5E7;}
	.st2{fill:#B0B7BD;}
	.st3{fill:#CAD1D8;}
	.st4{fill:#21D0C3;}
	.st5{fill:none;stroke:#FFFFFF;stroke-width:2;stroke-linecap:round;}
	.st6{fill:#C8C8C8;}
</style>
<g>
	<path class="st0" d="M5,0h246c2.8,0,5,2.2,5,5v214c0,2.8-2.2,5-5,5H5c-2.8,0-5-2.2-5-5V5C0,2.2,2.2,0,5,0z"/>
</g>
<path class="st1" d="M109.7,53.1c-2.5,0-4.6,2.1-4.6,4.6v64c0,2.5,2.1,4.6,4.6,4.6h45.7c2.5,0,4.6-2.1,4.6-4.6V71.4l-18.3-18.3
	H109.7z"/>
<path class="st2" d="M146.3,71.4H160l-18.3-18.3v13.7C141.7,69.4,143.8,71.4,146.3,71.4z"/>
<path class="st3" d="M160,85.1l-13.7-13.7H160V85.1z"/>
<path class="st4" d="M150.9,113.1c0,1.3-1,2.3-2.3,2.3H98.3c-1.3,0-2.3-1-2.3-2.3V90.3c0-1.3,1-2.3,2.3-2.3h50.3
	c1.3,0,2.3,1,2.3,2.3V113.1z"/>
<path class="st5" d="M116,102l5,5l10-10"/>
<path class="st3" d="M148.6,114.9h-43.4v2.3h43.4c1.3,0,2.3-1,2.3-2.3v-2.3C150.9,113.8,149.8,114.9,148.6,114.9z"/>
<path class="st6" d="M43,176h-1.5v-10h5.6v1.3H43v3.3h3.9v1.3H43V176z M49.4,165.6c0.2,0,0.4,0.1,0.6,0.2c0.2,0.1,0.3,0.4,0.3,0.7
	c0,0.3-0.1,0.5-0.3,0.7c-0.2,0.1-0.4,0.2-0.6,0.2c-0.2,0-0.4-0.1-0.6-0.2c-0.2-0.1-0.2-0.4-0.2-0.7c0-0.3,0.1-0.5,0.2-0.7
	C49,165.6,49.2,165.6,49.4,165.6z M50.2,168.5v7.5h-1.5v-7.5H50.2z M54,176h-1.5v-10.6H54V176z M59.3,168.3c1,0,1.8,0.3,2.3,0.9
	c0.6,0.6,0.9,1.4,0.9,2.5v0.8h-5.1c0,0.8,0.2,1.4,0.6,1.8c0.4,0.4,0.9,0.6,1.6,0.6c0.5,0,0.9,0,1.3-0.1c0.4-0.1,0.8-0.2,1.2-0.4v1.2
	c-0.4,0.2-0.8,0.3-1.1,0.4c-0.4,0.1-0.8,0.1-1.4,0.1c-0.7,0-1.4-0.1-1.9-0.4c-0.6-0.3-1-0.7-1.3-1.3c-0.3-0.6-0.5-1.3-0.5-2.1
	c0-0.8,0.1-1.6,0.4-2.2c0.3-0.6,0.7-1,1.2-1.3C58,168.5,58.6,168.3,59.3,168.3z M59.3,169.5c-0.5,0-1,0.2-1.3,0.5
	c-0.3,0.3-0.5,0.8-0.6,1.5H61c0-0.6-0.2-1.1-0.4-1.4C60.3,169.6,59.9,169.5,59.3,169.5z M75.9,166v6.5c0,0.7-0.1,1.3-0.4,1.9
	c-0.3,0.6-0.7,1-1.3,1.3c-0.6,0.3-1.3,0.5-2.2,0.5c-1.3,0-2.2-0.3-2.9-1c-0.7-0.7-1-1.6-1-2.7V166h1.5v6.4c0,1.7,0.8,2.5,2.4,2.5
	c0.8,0,1.4-0.2,1.8-0.7c0.4-0.4,0.6-1.1,0.6-1.8V166H75.9z M82.1,168.3c0.9,0,1.6,0.3,2.2,1c0.6,0.7,0.8,1.6,0.8,2.9
	c0,1.3-0.3,2.3-0.8,2.9c-0.6,0.7-1.3,1-2.2,1c-0.6,0-1-0.1-1.4-0.3c-0.4-0.2-0.6-0.5-0.9-0.8h-0.1c0,0.2,0.1,0.4,0.1,0.6
	c0,0.2,0,0.4,0,0.6v3.1h-1.5v-10.9h1.2l0.2,1h0.1c0.2-0.3,0.5-0.6,0.9-0.8C81,168.4,81.5,168.3,82.1,168.3z M81.7,169.5
	c-0.7,0-1.2,0.2-1.5,0.6c-0.3,0.4-0.4,1-0.4,1.8v0.2c0,0.9,0.1,1.5,0.4,2c0.3,0.5,0.8,0.7,1.5,0.7c0.6,0,1.1-0.3,1.4-0.8
	c0.3-0.5,0.4-1.2,0.4-2c0-0.8-0.1-1.5-0.4-1.9C82.8,169.8,82.4,169.5,81.7,169.5z M88.5,176H87v-10.6h1.5V176z M97.4,172.2
	c0,1.3-0.3,2.2-1,2.9s-1.5,1-2.6,1c-0.7,0-1.3-0.2-1.8-0.5c-0.5-0.3-0.9-0.8-1.2-1.3c-0.3-0.6-0.4-1.3-0.4-2.1c0-1.3,0.3-2.2,1-2.9
	c0.6-0.7,1.5-1,2.6-1c0.7,0,1.3,0.2,1.8,0.5c0.5,0.3,0.9,0.7,1.2,1.3C97.3,170.7,97.4,171.4,97.4,172.2z M91.9,172.2
	c0,0.8,0.2,1.5,0.5,2c0.3,0.5,0.8,0.7,1.5,0.7s1.2-0.2,1.5-0.7c0.3-0.5,0.5-1.1,0.5-2c0-0.9-0.2-1.5-0.5-2c-0.3-0.5-0.8-0.7-1.5-0.7
	c-0.7,0-1.2,0.2-1.5,0.7C92,170.7,91.9,171.4,91.9,172.2z M102.3,168.3c0.9,0,1.6,0.2,2.1,0.6c0.5,0.4,0.7,1.1,0.7,1.9v5.1H104
	l-0.3-1.1h-0.1c-0.3,0.4-0.7,0.7-1,0.9c-0.4,0.2-0.8,0.3-1.5,0.3c-0.7,0-1.2-0.2-1.7-0.5c-0.4-0.4-0.7-1-0.7-1.7
	c0-0.8,0.3-1.3,0.9-1.8s1.5-0.6,2.7-0.7l1.3,0V171c0-0.6-0.1-0.9-0.4-1.2c-0.3-0.2-0.6-0.4-1.1-0.4c-0.4,0-0.8,0.1-1.1,0.2
	s-0.7,0.2-1,0.4l-0.5-1.1c0.4-0.2,0.8-0.3,1.2-0.5C101.3,168.4,101.8,168.3,102.3,168.3z M103.6,172.4l-1,0c-0.9,0-1.5,0.2-1.8,0.4
	c-0.3,0.2-0.5,0.6-0.5,1c0,0.4,0.1,0.7,0.3,0.9s0.5,0.3,0.9,0.3c0.6,0,1.1-0.2,1.4-0.5c0.4-0.3,0.6-0.8,0.6-1.5V172.4z M110,176.1
	c-0.9,0-1.6-0.3-2.2-1c-0.6-0.7-0.8-1.6-0.8-2.9c0-1.3,0.3-2.3,0.8-2.9c0.6-0.7,1.3-1,2.2-1c0.6,0,1,0.1,1.4,0.3
	c0.4,0.2,0.7,0.5,0.9,0.8h0.1c0-0.1,0-0.3-0.1-0.6s0-0.5,0-0.7v-2.8h1.5V176h-1.2l-0.3-1h-0.1c-0.2,0.3-0.5,0.6-0.9,0.8
	C111,176,110.5,176.1,110,176.1z M110.3,174.9c0.7,0,1.2-0.2,1.5-0.6c0.3-0.4,0.4-1,0.4-1.8v-0.2c0-0.9-0.1-1.5-0.4-2
	c-0.3-0.5-0.8-0.7-1.6-0.7c-0.6,0-1.1,0.2-1.4,0.7c-0.3,0.5-0.5,1.2-0.5,2s0.2,1.5,0.5,2C109.2,174.7,109.7,174.9,110.3,174.9z
	 M119,168.3c1,0,1.8,0.3,2.3,0.9c0.6,0.6,0.9,1.4,0.9,2.5v0.8h-5.1c0,0.8,0.2,1.4,0.6,1.8c0.4,0.4,0.9,0.6,1.6,0.6
	c0.5,0,0.9,0,1.3-0.1c0.4-0.1,0.8-0.2,1.2-0.4v1.2c-0.4,0.2-0.8,0.3-1.1,0.4c-0.4,0.1-0.8,0.1-1.4,0.1c-0.7,0-1.4-0.1-1.9-0.4
	c-0.6-0.3-1-0.7-1.3-1.3c-0.3-0.6-0.5-1.3-0.5-2.1c0-0.8,0.1-1.6,0.4-2.2c0.3-0.6,0.7-1,1.2-1.3C117.7,168.5,118.3,168.3,119,168.3z
	 M119,169.5c-0.5,0-1,0.2-1.3,0.5c-0.3,0.3-0.5,0.8-0.6,1.5h3.6c0-0.6-0.2-1.1-0.4-1.4C120,169.6,119.6,169.5,119,169.5z
	 M126.7,176.1c-0.9,0-1.6-0.3-2.2-1c-0.5-0.7-0.8-1.6-0.8-2.9c0-1.3,0.3-2.3,0.8-2.9s1.3-1,2.2-1c0.6,0,1,0.1,1.4,0.3
	s0.7,0.5,0.9,0.8h0.1c0-0.1,0-0.3-0.1-0.6s0-0.5,0-0.7v-2.8h1.5V176h-1.2l-0.3-1h-0.1c-0.2,0.3-0.5,0.6-0.9,0.8
	C127.7,176,127.2,176.1,126.7,176.1z M127,174.9c0.7,0,1.2-0.2,1.5-0.6c0.3-0.4,0.4-1,0.4-1.8v-0.2c0-0.9-0.1-1.5-0.4-2
	c-0.3-0.5-0.8-0.7-1.6-0.7c-0.6,0-1.1,0.2-1.4,0.7c-0.3,0.5-0.5,1.2-0.5,2s0.2,1.5,0.5,2C125.9,174.7,126.4,174.9,127,174.9z
	 M142.3,173.3c0,0.9-0.3,1.6-1,2.1s-1.5,0.8-2.6,0.8c-0.5,0-1.1,0-1.5-0.1c-0.5-0.1-0.9-0.2-1.2-0.4v-1.4c0.4,0.2,0.8,0.3,1.3,0.5
	c0.5,0.1,1,0.2,1.5,0.2c0.7,0,1.2-0.1,1.5-0.4c0.3-0.3,0.5-0.6,0.5-1.1c0-0.3-0.1-0.6-0.2-0.8c-0.1-0.2-0.4-0.4-0.7-0.6
	c-0.3-0.2-0.8-0.4-1.3-0.6c-0.5-0.2-0.9-0.4-1.3-0.7c-0.4-0.3-0.7-0.6-0.9-0.9c-0.2-0.4-0.3-0.8-0.3-1.4c0-0.8,0.3-1.5,0.9-1.9
	c0.6-0.5,1.4-0.7,2.4-0.7c0.5,0,1,0.1,1.5,0.2c0.5,0.1,0.9,0.2,1.3,0.4l-0.5,1.2c-0.4-0.2-0.8-0.3-1.2-0.4c-0.4-0.1-0.8-0.2-1.2-0.2
	c-0.6,0-1,0.1-1.3,0.4c-0.3,0.2-0.4,0.6-0.4,1c0,0.3,0.1,0.6,0.2,0.8c0.1,0.2,0.4,0.4,0.7,0.6s0.7,0.4,1.2,0.6
	c0.6,0.2,1,0.5,1.4,0.7c0.4,0.2,0.7,0.5,0.9,0.9C142.2,172.3,142.3,172.8,142.3,173.3z M150.6,168.5v7.5h-1.2l-0.2-1h-0.1
	c-0.2,0.4-0.6,0.7-1,0.9c-0.4,0.2-0.9,0.3-1.4,0.3c-0.9,0-1.6-0.2-2-0.7c-0.5-0.4-0.7-1.1-0.7-2.1v-4.9h1.5v4.7
	c0,1.2,0.5,1.8,1.5,1.8c0.8,0,1.3-0.2,1.6-0.7c0.3-0.5,0.4-1.1,0.4-2v-3.8H150.6z M155.9,176.1c-1,0-1.9-0.3-2.5-0.9
	c-0.6-0.6-1-1.6-1-2.9c0-0.9,0.2-1.7,0.5-2.3c0.3-0.6,0.7-1,1.3-1.3c0.5-0.3,1.2-0.4,1.8-0.4c0.4,0,0.8,0,1.2,0.1
	c0.4,0.1,0.7,0.2,0.9,0.3l-0.4,1.2c-0.3-0.1-0.5-0.2-0.8-0.3c-0.3-0.1-0.6-0.1-0.8-0.1c-1.4,0-2,0.9-2,2.7c0,0.9,0.2,1.5,0.5,2
	s0.8,0.7,1.5,0.7c0.4,0,0.8,0,1.1-0.1c0.3-0.1,0.6-0.2,0.9-0.4v1.3c-0.3,0.2-0.6,0.3-0.9,0.4C156.8,176.1,156.4,176.1,155.9,176.1z
	 M162.8,176.1c-1,0-1.9-0.3-2.5-0.9c-0.6-0.6-1-1.6-1-2.9c0-0.9,0.2-1.7,0.5-2.3c0.3-0.6,0.7-1,1.3-1.3c0.5-0.3,1.2-0.4,1.8-0.4
	c0.4,0,0.8,0,1.2,0.1c0.4,0.1,0.7,0.2,0.9,0.3l-0.4,1.2c-0.3-0.1-0.5-0.2-0.8-0.3c-0.3-0.1-0.6-0.1-0.8-0.1c-1.4,0-2,0.9-2,2.7
	c0,0.9,0.2,1.5,0.5,2s0.8,0.7,1.5,0.7c0.4,0,0.8,0,1.1-0.1c0.3-0.1,0.6-0.2,0.9-0.4v1.3c-0.3,0.2-0.6,0.3-0.9,0.4
	C163.6,176.1,163.3,176.1,162.8,176.1z M169.6,168.3c1,0,1.8,0.3,2.3,0.9c0.6,0.6,0.9,1.4,0.9,2.5v0.8h-5.1c0,0.8,0.2,1.4,0.6,1.8
	c0.4,0.4,0.9,0.6,1.6,0.6c0.5,0,0.9,0,1.3-0.1c0.4-0.1,0.8-0.2,1.2-0.4v1.2c-0.4,0.2-0.8,0.3-1.1,0.4c-0.4,0.1-0.8,0.1-1.4,0.1
	c-0.7,0-1.4-0.1-1.9-0.4c-0.6-0.3-1-0.7-1.3-1.3c-0.3-0.6-0.5-1.3-0.5-2.1c0-0.8,0.1-1.6,0.4-2.2c0.3-0.6,0.7-1,1.2-1.3
	C168.3,168.5,168.9,168.3,169.6,168.3z M169.6,169.5c-0.5,0-1,0.2-1.3,0.5c-0.3,0.3-0.5,0.8-0.6,1.5h3.6c0-0.6-0.2-1.1-0.4-1.4
	C170.6,169.6,170.2,169.5,169.6,169.5z M179.6,173.9c0,0.7-0.3,1.3-0.8,1.7c-0.5,0.4-1.3,0.6-2.3,0.6c-0.5,0-1,0-1.4-0.1
	c-0.4-0.1-0.7-0.2-1-0.3v-1.3c0.3,0.2,0.7,0.3,1.1,0.4c0.4,0.1,0.9,0.2,1.3,0.2c0.6,0,1-0.1,1.2-0.3c0.3-0.2,0.4-0.4,0.4-0.7
	c0-0.2,0-0.3-0.1-0.4c-0.1-0.1-0.3-0.3-0.5-0.4c-0.3-0.1-0.6-0.3-1.1-0.5c-0.5-0.2-0.9-0.4-1.2-0.6c-0.3-0.2-0.6-0.4-0.8-0.7
	c-0.2-0.3-0.3-0.6-0.3-1c0-0.7,0.3-1.2,0.8-1.5c0.5-0.4,1.2-0.5,2.1-0.5c0.5,0,0.9,0,1.3,0.1c0.4,0.1,0.8,0.2,1.2,0.4L179,170
	c-0.3-0.1-0.7-0.3-1-0.3c-0.3-0.1-0.7-0.2-1-0.2c-0.4,0-0.8,0.1-1,0.2c-0.2,0.1-0.4,0.3-0.4,0.6c0,0.2,0.1,0.3,0.2,0.5
	c0.1,0.1,0.3,0.3,0.6,0.4c0.3,0.1,0.6,0.3,1.1,0.5c0.5,0.2,0.9,0.4,1.2,0.5c0.3,0.2,0.6,0.4,0.8,0.7
	C179.6,173.1,179.6,173.5,179.6,173.9z M186.4,173.9c0,0.7-0.3,1.3-0.8,1.7c-0.5,0.4-1.3,0.6-2.3,0.6c-0.5,0-1,0-1.4-0.1
	c-0.4-0.1-0.7-0.2-1-0.3v-1.3c0.3,0.2,0.7,0.3,1.1,0.4c0.4,0.1,0.9,0.2,1.3,0.2c0.6,0,1-0.1,1.2-0.3c0.3-0.2,0.4-0.4,0.4-0.7
	c0-0.2,0-0.3-0.1-0.4c-0.1-0.1-0.3-0.3-0.5-0.4c-0.3-0.1-0.6-0.3-1.1-0.5c-0.5-0.2-0.9-0.4-1.2-0.6c-0.3-0.2-0.6-0.4-0.8-0.7
	c-0.2-0.3-0.3-0.6-0.3-1c0-0.7,0.3-1.2,0.8-1.5c0.5-0.4,1.2-0.5,2.1-0.5c0.5,0,0.9,0,1.3,0.1c0.4,0.1,0.8,0.2,1.2,0.4l-0.5,1.1
	c-0.3-0.1-0.7-0.3-1-0.3c-0.3-0.1-0.7-0.2-1.1-0.2c-0.4,0-0.8,0.1-1,0.2s-0.3,0.3-0.3,0.6c0,0.2,0.1,0.3,0.2,0.5
	c0.1,0.1,0.3,0.3,0.6,0.4c0.3,0.1,0.6,0.3,1.1,0.5c0.5,0.2,0.9,0.4,1.2,0.5c0.3,0.2,0.6,0.4,0.8,0.7
	C186.3,173.1,186.4,173.5,186.4,173.9z M191.9,169.6H190v6.4h-1.5v-6.4h-1.3v-0.7l1.3-0.5v-0.5c0-1,0.2-1.6,0.7-2
	c0.4-0.4,1.1-0.6,1.9-0.6c0.3,0,0.6,0,0.9,0.1c0.3,0.1,0.5,0.1,0.7,0.2l-0.4,1.1c-0.2,0-0.3-0.1-0.5-0.1c-0.2,0-0.4-0.1-0.6-0.1
	c-0.7,0-1.1,0.5-1.1,1.5v0.5h1.9V169.6z M199.7,168.5v7.5h-1.2l-0.2-1h-0.1c-0.2,0.4-0.6,0.7-1,0.9c-0.4,0.2-0.9,0.3-1.4,0.3
	c-0.9,0-1.6-0.2-2-0.7c-0.5-0.4-0.7-1.1-0.7-2.1v-4.9h1.5v4.7c0,1.2,0.5,1.8,1.5,1.8c0.8,0,1.3-0.2,1.6-0.7c0.3-0.5,0.4-1.1,0.4-2
	v-3.8H199.7z M203.5,176H202v-10.6h1.5V176z M207.3,176h-1.5v-10.6h1.5V176z M208.5,168.5h1.6l1.6,4.3c0.1,0.3,0.2,0.6,0.3,1
	c0.1,0.3,0.2,0.6,0.2,0.9h0.1c0-0.2,0.1-0.5,0.2-0.9c0.1-0.3,0.2-0.7,0.3-1l1.5-4.3h1.6l-3.2,8.6c-0.3,0.7-0.6,1.3-1.1,1.7
	c-0.4,0.4-1,0.6-1.8,0.6c-0.2,0-0.4,0-0.6,0c-0.2,0-0.3,0-0.4-0.1v-1.2c0.1,0,0.2,0,0.4,0.1c0.2,0,0.3,0,0.5,0c0.4,0,0.8-0.1,1-0.4
	c0.3-0.2,0.5-0.6,0.6-1l0.3-0.8L208.5,168.5z"/>
</svg>
