<?xml version="1.0" encoding="utf-8"?>
<!-- Generator: Adobe Illustrator 21.0.0, SVG Export Plug-In . SVG Version: 6.00 Build 0)  -->
<svg version="1.1" id="Layer_1" xmlns="http://www.w3.org/2000/svg" xmlns:xlink="http://www.w3.org/1999/xlink" x="0px" y="0px"
	 viewBox="0 0 256 224" style="enable-background:new 0 0 256 224;" xml:space="preserve">
<style type="text/css">
	.st0{fill:#FFFFFF;}
	.st1{fill:#E2E5E7;}
	.st2{fill:#B0B7BD;}
	.st3{fill:#CAD1D8;}
	.st4{fill:#41AAE2;}
	.st5{fill:#C8C8C8;}
</style>
<g>
	<path class="st0" d="M5,0h246c2.8,0,5,2.2,5,5v214c0,2.8-2.2,5-5,5H5c-2.8,0-5-2.2-5-5V5C0,2.2,2.2,0,5,0z"/>
</g>
<path class="st1" d="M109.7,53.1c-2.5,0-4.6,2.1-4.6,4.6v64c0,2.5,2.1,4.6,4.6,4.6h45.7c2.5,0,4.6-2.1,4.6-4.6V71.4l-18.3-18.3
	H109.7z"/>
<path class="st2" d="M146.3,71.4H160l-18.3-18.3v13.7C141.7,69.4,143.8,71.4,146.3,71.4z"/>
<path class="st3" d="M160,85.1l-13.7-13.7H160V85.1z"/>
<path class="st4" d="M150.9,112.6c0,1.3-1,2.3-2.3,2.3H98.3c-1.3,0-2.3-1-2.3-2.3V89.7c0-1.3,1-2.3,2.3-2.3h50.3
	c1.3,0,2.3,1,2.3,2.3V112.6z"/>
<path class="st0" d="M106,96.5c0-0.6,0.5-1.3,1.2-1.3h4.2c2.4,0,4.5,1.6,4.5,4.6c0,2.9-2.1,4.5-4.5,4.5h-3.1v2.4
	c0,0.8-0.5,1.3-1.2,1.3c-0.6,0-1.2-0.5-1.2-1.3V96.5z M108.4,97.5v4.6h3.1c1.2,0,2.2-1.1,2.2-2.2c0-1.3-1-2.3-2.2-2.3H108.4z"/>
<path class="st0" d="M119.5,108c-0.6,0-1.3-0.3-1.3-1.1V96.5c0-0.7,0.7-1.1,1.3-1.1h4.2c8.4,0,8.2,12.6,0.2,12.6H119.5z M120.7,97.6
	v8.2h3c4.9,0,5.2-8.2,0-8.2H120.7z"/>
<path class="st0" d="M134.8,97.7v2.9h4.7c0.7,0,1.3,0.7,1.3,1.3c0,0.6-0.7,1.1-1.3,1.1h-4.7v3.8c0,0.6-0.5,1.1-1.1,1.1
	c-0.8,0-1.3-0.5-1.3-1.1V96.5c0-0.7,0.5-1.1,1.3-1.1h6.4c0.8,0,1.3,0.5,1.3,1.1c0,0.6-0.5,1.2-1.3,1.2L134.8,97.7L134.8,97.7z"/>
<path class="st3" d="M148.6,114.9h-43.4v2.3h43.4c1.3,0,2.3-1,2.3-2.3v-2.3C150.9,113.8,149.8,114.9,148.6,114.9z"/>
<path class="st5" d="M86.5,166v6.5c0,0.7-0.1,1.3-0.4,1.9c-0.3,0.6-0.7,1-1.3,1.3c-0.6,0.3-1.3,0.5-2.2,0.5c-1.3,0-2.2-0.3-2.9-1
	c-0.7-0.7-1-1.6-1-2.7V166h1.5v6.4c0,1.7,0.8,2.5,2.4,2.5c0.8,0,1.4-0.2,1.8-0.7c0.4-0.4,0.6-1.1,0.6-1.8V166H86.5z M92.7,168.3
	c0.9,0,1.6,0.3,2.2,1c0.6,0.7,0.8,1.6,0.8,2.9c0,1.3-0.3,2.3-0.8,2.9c-0.6,0.7-1.3,1-2.2,1c-0.6,0-1.1-0.1-1.4-0.3
	c-0.4-0.2-0.6-0.5-0.9-0.8h-0.1c0,0.2,0.1,0.4,0.1,0.6c0,0.2,0,0.4,0,0.6v3.1h-1.5v-10.9h1.2l0.2,1h0.1c0.2-0.3,0.5-0.6,0.9-0.8
	C91.6,168.4,92.1,168.3,92.7,168.3z M92.3,169.5c-0.7,0-1.2,0.2-1.5,0.6c-0.3,0.4-0.4,1-0.4,1.8v0.2c0,0.9,0.1,1.5,0.4,2
	c0.3,0.5,0.8,0.7,1.5,0.7c0.6,0,1.1-0.3,1.4-0.8c0.3-0.5,0.4-1.2,0.4-2c0-0.8-0.1-1.5-0.4-1.9C93.4,169.8,92.9,169.5,92.3,169.5z
	 M99.1,176h-1.5v-10.6h1.5V176z M108,172.2c0,1.3-0.3,2.2-1,2.9c-0.6,0.7-1.5,1-2.6,1c-0.7,0-1.3-0.2-1.8-0.5
	c-0.5-0.3-0.9-0.8-1.2-1.3c-0.3-0.6-0.4-1.3-0.4-2.1c0-1.3,0.3-2.2,1-2.9c0.6-0.7,1.5-1,2.6-1c0.7,0,1.3,0.2,1.8,0.5
	c0.5,0.3,0.9,0.7,1.2,1.3C107.9,170.7,108,171.4,108,172.2z M102.5,172.2c0,0.8,0.2,1.5,0.5,2c0.3,0.5,0.8,0.7,1.5,0.7
	c0.7,0,1.2-0.2,1.5-0.7c0.3-0.5,0.5-1.1,0.5-2c0-0.9-0.2-1.5-0.5-2c-0.3-0.5-0.8-0.7-1.5-0.7s-1.2,0.2-1.5,0.7
	C102.6,170.7,102.5,171.4,102.5,172.2z M112.8,168.3c0.9,0,1.6,0.2,2.1,0.6c0.5,0.4,0.7,1.1,0.7,1.9v5.1h-1.1l-0.3-1.1h-0.1
	c-0.3,0.4-0.7,0.7-1,0.9c-0.4,0.2-0.8,0.3-1.5,0.3c-0.7,0-1.2-0.2-1.7-0.5c-0.4-0.4-0.7-1-0.7-1.7c0-0.8,0.3-1.3,0.9-1.8
	c0.6-0.4,1.5-0.6,2.7-0.7l1.3,0V171c0-0.6-0.1-0.9-0.4-1.2c-0.3-0.2-0.6-0.4-1.1-0.4c-0.4,0-0.8,0.1-1.1,0.2c-0.4,0.1-0.7,0.2-1,0.4
	l-0.5-1.1c0.4-0.2,0.8-0.3,1.2-0.5C111.9,168.4,112.3,168.3,112.8,168.3z M114.2,172.4l-1,0c-0.9,0-1.5,0.2-1.8,0.4
	c-0.3,0.2-0.5,0.6-0.5,1c0,0.4,0.1,0.7,0.4,0.9s0.5,0.3,0.9,0.3c0.6,0,1.1-0.2,1.4-0.5c0.4-0.3,0.6-0.8,0.6-1.5V172.4z M120.5,176.1
	c-0.9,0-1.6-0.3-2.2-1c-0.6-0.7-0.8-1.6-0.8-2.9c0-1.3,0.3-2.3,0.8-2.9s1.3-1,2.2-1c0.6,0,1,0.1,1.4,0.3s0.7,0.5,0.9,0.8h0.1
	c0-0.1,0-0.3-0.1-0.6s0-0.5,0-0.7v-2.8h1.5V176h-1.2l-0.3-1h-0.1c-0.2,0.3-0.5,0.6-0.9,0.8C121.6,176,121.1,176.1,120.5,176.1z
	 M120.9,174.9c0.7,0,1.2-0.2,1.5-0.6c0.3-0.4,0.4-1,0.4-1.8v-0.2c0-0.9-0.1-1.5-0.4-2c-0.3-0.5-0.8-0.7-1.6-0.7
	c-0.6,0-1.1,0.2-1.4,0.7c-0.3,0.5-0.5,1.2-0.5,2s0.2,1.5,0.5,2C119.8,174.7,120.3,174.9,120.9,174.9z M133.2,166
	c1.3,0,2.3,0.3,2.9,0.8c0.6,0.5,0.9,1.3,0.9,2.2c0,0.6-0.1,1.1-0.4,1.6c-0.2,0.5-0.7,0.9-1.2,1.2c-0.6,0.3-1.4,0.4-2.4,0.4h-1.1v3.8
	h-1.5v-10H133.2z M133.1,167.3h-1.2v3.7h0.9c0.9,0,1.5-0.1,1.9-0.4c0.4-0.3,0.7-0.8,0.7-1.4c0-0.6-0.2-1-0.6-1.3
	C134.5,167.4,133.9,167.3,133.1,167.3z M147.1,170.9c0,1.7-0.5,3-1.4,3.8c-0.9,0.8-2.2,1.3-3.9,1.3H139v-10h3.1c1,0,1.9,0.2,2.6,0.6
	c0.7,0.4,1.3,0.9,1.7,1.7C146.9,168.9,147.1,169.8,147.1,170.9z M145.5,170.9c0-1.3-0.3-2.2-0.9-2.8c-0.6-0.6-1.5-0.9-2.6-0.9h-1.5
	v7.4h1.2C144.3,174.7,145.5,173.5,145.5,170.9z M150.8,176h-1.5v-10h5.6v1.3h-4.1v3.3h3.9v1.3h-3.9V176z M163.8,169.6H162v6.4h-1.5
	v-6.4h-1.3v-0.7l1.3-0.5v-0.5c0-1,0.2-1.6,0.7-2c0.4-0.4,1.1-0.6,1.9-0.6c0.3,0,0.6,0,0.9,0.1c0.3,0.1,0.5,0.1,0.7,0.2l-0.4,1.1
	c-0.2,0-0.3-0.1-0.5-0.1c-0.2,0-0.4-0.1-0.6-0.1c-0.7,0-1.1,0.5-1.1,1.5v0.5h1.9V169.6z M165.9,165.6c0.2,0,0.4,0.1,0.6,0.2
	s0.3,0.4,0.3,0.7c0,0.3-0.1,0.5-0.3,0.7c-0.2,0.1-0.4,0.2-0.6,0.2c-0.2,0-0.4-0.1-0.6-0.2c-0.2-0.1-0.2-0.4-0.2-0.7
	c0-0.3,0.1-0.5,0.2-0.7C165.4,165.6,165.7,165.6,165.9,165.6z M166.6,168.5v7.5h-1.5v-7.5H166.6z M170.4,176h-1.5v-10.6h1.5V176z
	 M175.7,168.3c1,0,1.8,0.3,2.3,0.9c0.6,0.6,0.9,1.4,0.9,2.5v0.8h-5.1c0,0.8,0.2,1.4,0.6,1.8c0.4,0.4,0.9,0.6,1.6,0.6
	c0.5,0,0.9,0,1.3-0.1c0.4-0.1,0.8-0.2,1.2-0.4v1.2c-0.4,0.2-0.8,0.3-1.1,0.4c-0.4,0.1-0.8,0.1-1.4,0.1c-0.7,0-1.4-0.1-1.9-0.4
	c-0.6-0.3-1-0.7-1.3-1.3c-0.3-0.6-0.5-1.3-0.5-2.1c0-0.8,0.1-1.6,0.4-2.2c0.3-0.6,0.7-1,1.2-1.3C174.5,168.5,175,168.3,175.7,168.3z
	 M175.7,169.5c-0.5,0-1,0.2-1.3,0.5c-0.3,0.3-0.5,0.8-0.6,1.5h3.6c0-0.6-0.2-1.1-0.4-1.4C176.7,169.6,176.3,169.5,175.7,169.5z"/>
</svg>
