<?xml version="1.0" encoding="utf-8"?>
<!-- Generator: Adobe Illustrator 21.0.0, SVG Export Plug-In . SVG Version: 6.00 Build 0)  -->
<svg version="1.1" id="Layer_1" xmlns="http://www.w3.org/2000/svg" xmlns:xlink="http://www.w3.org/1999/xlink" x="0px" y="0px"
	 viewBox="0 0 173.1 221.1" style="enable-background:new 0 0 173.1 221.1;" xml:space="preserve">
<style type="text/css">
	.st0{opacity:0.5;}
	.st1{opacity:0.5;fill:url(#SVGID_1_);enable-background:new    ;}
	.st2{fill:#FFFFFF;}
	.st3{fill:#E0E0E0;}
	.st4{fill:#41AAE2;}
	.st5{opacity:0.5;fill:url(#SVGID_2_);enable-background:new    ;}
	.st6{fill:#E0E0E0;filter:url(#Adobe_OpacityMaskFilter);}
	.st7{mask:url(#mask0);}
	.st8{fill:#B2B2B2;}
</style>
<g class="st0">
	
		<linearGradient id="SVGID_1_" gradientUnits="userSpaceOnUse" x1="75.1758" y1="-147869" x2="75.1758" y2="-34158.6016" gradientTransform="matrix(1 0 0 -1 0 216)">
		<stop  offset="0" style="stop-color:#808080;stop-opacity:0.25"/>
		<stop  offset="0.54" style="stop-color:#808080;stop-opacity:0.12"/>
		<stop  offset="1" style="stop-color:#808080;stop-opacity:0.1"/>
	</linearGradient>
	<path class="st1" d="M150.4,0H0v207.7h150.4V0z"/>
</g>
<g>
	<path class="st2" d="M148.4,1.5H1.9v203.1h146.5V1.5z"/>
</g>
<path class="st3" d="M127.2,89.6H21.5V96h105.8V89.6z"/>
<path class="st3" d="M127.2,105.6H21.5v6.4h105.8V105.6z"/>
<path class="st3" d="M127.2,38.3H72.7v6.4h54.5V38.3z"/>
<path class="st4" d="M122.4,54.4H77.5v6.4h44.9V54.4z"/>
<path class="st3" d="M114.4,121.7H21.5v6.4h92.9V121.7z"/>
<path class="st3" d="M101.6,137.7H21.5v6.4h80.1V137.7z"/>
<path class="st3" d="M92,153.7H21.5v6.4H92V153.7z"/>
<path class="st3" d="M111.2,169.7H21.5v6.4h89.7V169.7z"/>
<path class="st4" d="M56.7,185.8H21.5v6.4h35.3V185.8z"/>
<g class="st0">
	
		<linearGradient id="SVGID_2_" gradientUnits="userSpaceOnUse" x1="140.2107" y1="-47850.8984" x2="140.2107" y2="-37040.1992" gradientTransform="matrix(1 0 0 -1 0 216)">
		<stop  offset="0" style="stop-color:#808080;stop-opacity:0.25"/>
		<stop  offset="0.54" style="stop-color:#808080;stop-opacity:0.12"/>
		<stop  offset="1" style="stop-color:#808080;stop-opacity:0.1"/>
	</linearGradient>
	<path class="st5" d="M140.2,221.1c17.7,0,32-14.3,32-32c0-17.7-14.3-32-32-32c-17.7,0-32,14.3-32,32
		C108.2,206.7,122.5,221.1,140.2,221.1z"/>
</g>
<path class="st4" d="M140.1,219.3c16.6,0,30.1-13.5,30.1-30.1s-13.5-30.1-30.1-30.1c-16.6,0-30.1,13.5-30.1,30.1
	S123.4,219.3,140.1,219.3z"/>
<path class="st2" d="M136.8,193.4v-1.2c0-1.3,0.2-2.3,0.7-3.2c0.5-0.9,1.4-1.8,2.6-2.7c0.8-0.6,1.5-1.1,2-1.6
	c0.5-0.5,0.9-0.9,1.1-1.4c0.2-0.5,0.3-1,0.3-1.6c0-0.9-0.3-1.6-1-2.1c-0.6-0.5-1.6-0.7-2.8-0.7c-1.1,0-2.1,0.2-3.1,0.5
	c-1,0.3-2,0.7-3,1.2l-1.7-3.4c1.1-0.6,2.4-1.1,3.7-1.5c1.3-0.4,2.8-0.6,4.5-0.6c2.5,0,4.4,0.6,5.8,1.8c1.4,1.2,2.1,2.7,2.1,4.7
	c0,1.1-0.2,2-0.5,2.7c-0.3,0.7-0.8,1.4-1.5,2.1c-0.6,0.6-1.4,1.3-2.4,2c-0.8,0.6-1.4,1.1-1.8,1.5c-0.4,0.4-0.7,0.8-0.8,1.2
	c-0.1,0.4-0.2,0.9-0.2,1.5v0.9H136.8z M136.1,199.2c0-1,0.3-1.7,0.8-2.2c0.6-0.4,1.3-0.7,2-0.7c0.8,0,1.4,0.2,2,0.7
	c0.6,0.4,0.9,1.1,0.9,2.2c0,1-0.3,1.7-0.9,2.2c-0.5,0.4-1.2,0.7-2,0.7c-0.8,0-1.5-0.2-2-0.7C136.4,201,136.1,200.2,136.1,199.2z"/>
<circle class="st3" cx="43.2" cy="47.5" r="21.8"/>
<defs>
	<filter id="Adobe_OpacityMaskFilter" filterUnits="userSpaceOnUse" x="25.9" y="38.1" width="34" height="34">
		<feColorMatrix  type="matrix" values="1 0 0 0 0  0 1 0 0 0  0 0 1 0 0  0 0 0 1 0"/>
	</filter>
</defs>
<mask maskUnits="userSpaceOnUse" x="25.9" y="38.1" width="34" height="34" id="mask0">
	<circle class="st6" cx="43.2" cy="47.5" r="21.8"/>
</mask>
<g class="st7">
	<path class="st8" d="M55,60c-1.9-1.9-4.1-3.2-6.5-4.1c2.6-1.8,4.3-4.7,4.3-8.1c0-5.4-4.4-9.8-9.8-9.8c-5.4,0-9.8,4.4-9.8,9.8
		c0,3.4,1.7,6.3,4.3,8.1c-2.4,0.8-4.6,2.2-6.5,4.1c-3.2,3.2-5,7.5-5,12h2.7c0-7.9,6.4-14.3,14.3-14.3s14.3,6.4,14.3,14.3h2.7
		C59.9,67.5,58.2,63.3,55,60z M42.9,55.1c-4,0-7.2-3.2-7.2-7.2c0-4,3.2-7.2,7.2-7.2c4,0,7.2,3.2,7.2,7.2
		C50.1,51.8,46.9,55.1,42.9,55.1z"/>
</g>
</svg>
